%TF.GenerationSoftware,KiCad,Pcbnew,7.0.1*%
%TF.CreationDate,2023-03-17T17:08:37-04:00*%
%TF.ProjectId,ticker,7469636b-6572-42e6-9b69-6361645f7063,rev?*%
%TF.SameCoordinates,Original*%
%TF.FileFunction,Soldermask,Bot*%
%TF.FilePolarity,Negative*%
%FSLAX46Y46*%
G04 Gerber Fmt 4.6, Leading zero omitted, Abs format (unit mm)*
G04 Created by KiCad (PCBNEW 7.0.1) date 2023-03-17 17:08:37*
%MOMM*%
%LPD*%
G01*
G04 APERTURE LIST*
%ADD10O,1.700000X1.700000*%
%ADD11R,1.700000X1.700000*%
%ADD12R,1.200000X2.000000*%
%ADD13O,1.200000X2.000000*%
%ADD14O,2.400000X1.600000*%
%ADD15R,2.400000X1.600000*%
G04 APERTURE END LIST*
D10*
%TO.C,J2*%
X169260000Y-145400000D03*
X171800000Y-145400000D03*
X169260000Y-142860000D03*
X171800000Y-142860000D03*
X169260000Y-140320000D03*
X171800000Y-140320000D03*
X169260000Y-137780000D03*
X171800000Y-137780000D03*
X169260000Y-135240000D03*
X171800000Y-135240000D03*
X169260000Y-132700000D03*
X171800000Y-132700000D03*
X169260000Y-130160000D03*
X171800000Y-130160000D03*
X169260000Y-127620000D03*
X171800000Y-127620000D03*
X169260000Y-125080000D03*
X171800000Y-125080000D03*
X169260000Y-122540000D03*
X171800000Y-122540000D03*
X169260000Y-120000000D03*
D11*
X171800000Y-120000000D03*
%TD*%
%TO.C,J1*%
X127525000Y-120000000D03*
D10*
X130065000Y-120000000D03*
X127525000Y-122540000D03*
X130065000Y-122540000D03*
X127525000Y-125080000D03*
X130065000Y-125080000D03*
X127525000Y-127620000D03*
X130065000Y-127620000D03*
X127525000Y-130160000D03*
X130065000Y-130160000D03*
X127525000Y-132700000D03*
X130065000Y-132700000D03*
X127525000Y-135240000D03*
X130065000Y-135240000D03*
X127525000Y-137780000D03*
X130065000Y-137780000D03*
X127525000Y-140320000D03*
X130065000Y-140320000D03*
X127525000Y-142860000D03*
X130065000Y-142860000D03*
X127525000Y-145400000D03*
X130065000Y-145400000D03*
%TD*%
D12*
%TO.C,LED1*%
X136030000Y-92200000D03*
D13*
X138570000Y-92200000D03*
X141110000Y-92200000D03*
X143650000Y-92200000D03*
X146190000Y-92200000D03*
X148730000Y-92200000D03*
X151270000Y-92200000D03*
X153810000Y-92200000D03*
X156350000Y-92200000D03*
X158890000Y-92200000D03*
X161430000Y-92200000D03*
X163970000Y-92200000D03*
X163970000Y-45800000D03*
X161430000Y-45800000D03*
X158890000Y-45800000D03*
X156350000Y-45800000D03*
X153810000Y-45800000D03*
X151270000Y-45800000D03*
X148730000Y-45800000D03*
X146190000Y-45800000D03*
X143650000Y-45800000D03*
X141110000Y-45800000D03*
X138570000Y-45800000D03*
X136030000Y-45800000D03*
%TD*%
D12*
%TO.C,LED2*%
X136030000Y-152700000D03*
D13*
X138570000Y-152700000D03*
X141110000Y-152700000D03*
X143650000Y-152700000D03*
X146190000Y-152700000D03*
X148730000Y-152700000D03*
X151270000Y-152700000D03*
X153810000Y-152700000D03*
X156350000Y-152700000D03*
X158890000Y-152700000D03*
X161430000Y-152700000D03*
X163970000Y-152700000D03*
X163970000Y-106300000D03*
X161430000Y-106300000D03*
X158890000Y-106300000D03*
X156350000Y-106300000D03*
X153810000Y-106300000D03*
X151270000Y-106300000D03*
X148730000Y-106300000D03*
X146190000Y-106300000D03*
X143650000Y-106300000D03*
X141110000Y-106300000D03*
X138570000Y-106300000D03*
X136030000Y-106300000D03*
%TD*%
D14*
%TO.C,U1*%
X132620000Y-78000000D03*
X132620000Y-75460000D03*
X132620000Y-72920000D03*
X132620000Y-70380000D03*
X132620000Y-67840000D03*
X132620000Y-65300000D03*
X132620000Y-62760000D03*
X132620000Y-60220000D03*
X125000000Y-60220000D03*
X125000000Y-62760000D03*
X125000000Y-65300000D03*
X125000000Y-67840000D03*
X125000000Y-70380000D03*
X125000000Y-72920000D03*
X125000000Y-75460000D03*
D15*
X125000000Y-78000000D03*
%TD*%
D14*
%TO.C,U2*%
X174620000Y-78000000D03*
X174620000Y-75460000D03*
X174620000Y-72920000D03*
X174620000Y-70380000D03*
X174620000Y-67840000D03*
X174620000Y-65300000D03*
X174620000Y-62760000D03*
X174620000Y-60220000D03*
X167000000Y-60220000D03*
X167000000Y-62760000D03*
X167000000Y-65300000D03*
X167000000Y-67840000D03*
X167000000Y-70380000D03*
X167000000Y-72920000D03*
X167000000Y-75460000D03*
D15*
X167000000Y-78000000D03*
%TD*%
M02*
