M48
; DRILL file {KiCad 7.0.1} date Fri Mar 17 17:08:33 2023
; FORMAT={-:-/ absolute / inch / decimal}
; #@! TF.CreationDate,2023-03-17T17:08:33-04:00
; #@! TF.GenerationSoftware,Kicad,Pcbnew,7.0.1
; #@! TF.FileFunction,Plated,1,2,PTH
FMAT,2
INCH
; #@! TA.AperFunction,Plated,PTH,ViaDrill
T1C0.0157
; #@! TA.AperFunction,Plated,PTH,ComponentDrill
T2C0.0315
; #@! TA.AperFunction,Plated,PTH,ComponentDrill
T3C0.0394
%
G90
G05
T1
X4.9841Y-3.0044
X4.9858Y-3.1563
X5.0241Y-3.1183
X5.2213Y-4.4417
X5.6555Y-3.4239
X6.2102Y-2.6271
X6.4239Y-2.3559
X6.4815Y-2.7994
X6.6787Y-2.7617
X6.6787Y-4.4745
T2
X4.9213Y-2.3709
X4.9213Y-2.4709
X4.9213Y-2.5709
X4.9213Y-2.6709
X4.9213Y-2.7709
X4.9213Y-2.8709
X4.9213Y-2.9709
X4.9213Y-3.0709
X5.2213Y-2.3709
X5.2213Y-2.4709
X5.2213Y-2.5709
X5.2213Y-2.6709
X5.2213Y-2.7709
X5.2213Y-2.8709
X5.2213Y-2.9709
X5.2213Y-3.0709
X5.3555Y-1.8031
X5.3555Y-3.6299
X5.3555Y-4.185
X5.3555Y-6.0118
X5.4555Y-1.8031
X5.4555Y-3.6299
X5.4555Y-4.185
X5.4555Y-6.0118
X5.5555Y-1.8031
X5.5555Y-3.6299
X5.5555Y-4.185
X5.5555Y-6.0118
X5.6555Y-1.8031
X5.6555Y-3.6299
X5.6555Y-4.185
X5.6555Y-6.0118
X5.7555Y-1.8031
X5.7555Y-3.6299
X5.7555Y-4.185
X5.7555Y-6.0118
X5.8555Y-1.8031
X5.8555Y-3.6299
X5.8555Y-4.185
X5.8555Y-6.0118
X5.9555Y-1.8031
X5.9555Y-3.6299
X5.9555Y-4.185
X5.9555Y-6.0118
X6.0555Y-1.8031
X6.0555Y-3.6299
X6.0555Y-4.185
X6.0555Y-6.0118
X6.1555Y-1.8031
X6.1555Y-3.6299
X6.1555Y-4.185
X6.1555Y-6.0118
X6.2555Y-1.8031
X6.2555Y-3.6299
X6.2555Y-4.185
X6.2555Y-6.0118
X6.3555Y-1.8031
X6.3555Y-3.6299
X6.3555Y-4.185
X6.3555Y-6.0118
X6.4555Y-1.8031
X6.4555Y-3.6299
X6.4555Y-4.185
X6.4555Y-6.0118
X6.5748Y-2.3709
X6.5748Y-2.4709
X6.5748Y-2.5709
X6.5748Y-2.6709
X6.5748Y-2.7709
X6.5748Y-2.8709
X6.5748Y-2.9709
X6.5748Y-3.0709
X6.8748Y-2.3709
X6.8748Y-2.4709
X6.8748Y-2.5709
X6.8748Y-2.6709
X6.8748Y-2.7709
X6.8748Y-2.8709
X6.8748Y-2.9709
X6.8748Y-3.0709
T3
X5.0207Y-4.7244
X5.0207Y-4.8244
X5.0207Y-4.9244
X5.0207Y-5.0244
X5.0207Y-5.1244
X5.0207Y-5.2244
X5.0207Y-5.3244
X5.0207Y-5.4244
X5.0207Y-5.5244
X5.0207Y-5.6244
X5.0207Y-5.7244
X5.1207Y-4.7244
X5.1207Y-4.8244
X5.1207Y-4.9244
X5.1207Y-5.0244
X5.1207Y-5.1244
X5.1207Y-5.2244
X5.1207Y-5.3244
X5.1207Y-5.4244
X5.1207Y-5.5244
X5.1207Y-5.6244
X5.1207Y-5.7244
X6.6638Y-4.7244
X6.6638Y-4.8244
X6.6638Y-4.9244
X6.6638Y-5.0244
X6.6638Y-5.1244
X6.6638Y-5.2244
X6.6638Y-5.3244
X6.6638Y-5.4244
X6.6638Y-5.5244
X6.6638Y-5.6244
X6.6638Y-5.7244
X6.7638Y-4.7244
X6.7638Y-4.8244
X6.7638Y-4.9244
X6.7638Y-5.0244
X6.7638Y-5.1244
X6.7638Y-5.2244
X6.7638Y-5.3244
X6.7638Y-5.4244
X6.7638Y-5.5244
X6.7638Y-5.6244
X6.7638Y-5.7244
T0
M30
