%TF.GenerationSoftware,KiCad,Pcbnew,7.0.1*%
%TF.CreationDate,2023-03-17T17:08:37-04:00*%
%TF.ProjectId,ticker,7469636b-6572-42e6-9b69-6361645f7063,rev?*%
%TF.SameCoordinates,Original*%
%TF.FileFunction,Copper,L1,Top*%
%TF.FilePolarity,Positive*%
%FSLAX46Y46*%
G04 Gerber Fmt 4.6, Leading zero omitted, Abs format (unit mm)*
G04 Created by KiCad (PCBNEW 7.0.1) date 2023-03-17 17:08:37*
%MOMM*%
%LPD*%
G01*
G04 APERTURE LIST*
%TA.AperFunction,ComponentPad*%
%ADD10O,1.700000X1.700000*%
%TD*%
%TA.AperFunction,ComponentPad*%
%ADD11R,1.700000X1.700000*%
%TD*%
%TA.AperFunction,ComponentPad*%
%ADD12R,1.200000X2.000000*%
%TD*%
%TA.AperFunction,ComponentPad*%
%ADD13O,1.200000X2.000000*%
%TD*%
%TA.AperFunction,ComponentPad*%
%ADD14O,2.400000X1.600000*%
%TD*%
%TA.AperFunction,ComponentPad*%
%ADD15R,2.400000X1.600000*%
%TD*%
%TA.AperFunction,ViaPad*%
%ADD16C,0.800000*%
%TD*%
%TA.AperFunction,Conductor*%
%ADD17C,0.500000*%
%TD*%
%TA.AperFunction,Conductor*%
%ADD18C,0.250000*%
%TD*%
G04 APERTURE END LIST*
D10*
%TO.P,J2,22,Pin_22*%
%TO.N,Net-(J1-Pin_22)*%
X169260000Y-145400000D03*
%TO.P,J2,21,Pin_21*%
%TO.N,Net-(J1-Pin_21)*%
X171800000Y-145400000D03*
%TO.P,J2,20,Pin_20*%
%TO.N,Net-(J1-Pin_20)*%
X169260000Y-142860000D03*
%TO.P,J2,19,Pin_19*%
%TO.N,Net-(J1-Pin_19)*%
X171800000Y-142860000D03*
%TO.P,J2,18,Pin_18*%
%TO.N,Net-(J1-Pin_18)*%
X169260000Y-140320000D03*
%TO.P,J2,17,Pin_17*%
%TO.N,Net-(J1-Pin_17)*%
X171800000Y-140320000D03*
%TO.P,J2,16,Pin_16*%
%TO.N,Net-(J1-Pin_16)*%
X169260000Y-137780000D03*
%TO.P,J2,15,Pin_15*%
%TO.N,Net-(J1-Pin_15)*%
X171800000Y-137780000D03*
%TO.P,J2,14,Pin_14*%
%TO.N,Net-(J1-Pin_14)*%
X169260000Y-135240000D03*
%TO.P,J2,13,Pin_13*%
%TO.N,GND*%
X171800000Y-135240000D03*
%TO.P,J2,12,Pin_12*%
%TO.N,Net-(J1-Pin_12)*%
X169260000Y-132700000D03*
%TO.P,J2,11,Pin_11*%
%TO.N,unconnected-(J2-Pin_11-Pad11)*%
X171800000Y-132700000D03*
%TO.P,J2,10,Pin_10*%
%TO.N,Net-(J2-Pin_10)*%
X169260000Y-130160000D03*
%TO.P,J2,9,Pin_9*%
%TO.N,+3V3*%
X171800000Y-130160000D03*
%TO.P,J2,8,Pin_8*%
%TO.N,Net-(J1-Pin_8)*%
X169260000Y-127620000D03*
%TO.P,J2,7,Pin_7*%
%TO.N,Net-(J1-Pin_7)*%
X171800000Y-127620000D03*
%TO.P,J2,6,Pin_6*%
%TO.N,Net-(J1-Pin_6)*%
X169260000Y-125080000D03*
%TO.P,J2,5,Pin_5*%
%TO.N,Net-(J1-Pin_5)*%
X171800000Y-125080000D03*
%TO.P,J2,4,Pin_4*%
%TO.N,Net-(J1-Pin_4)*%
X169260000Y-122540000D03*
%TO.P,J2,3,Pin_3*%
%TO.N,Net-(J1-Pin_3)*%
X171800000Y-122540000D03*
%TO.P,J2,2,Pin_2*%
%TO.N,Net-(J1-Pin_2)*%
X169260000Y-120000000D03*
D11*
%TO.P,J2,1,Pin_1*%
%TO.N,Net-(J1-Pin_1)*%
X171800000Y-120000000D03*
%TD*%
%TO.P,J1,1,Pin_1*%
%TO.N,Net-(J1-Pin_1)*%
X127525000Y-120000000D03*
D10*
%TO.P,J1,2,Pin_2*%
%TO.N,Net-(J1-Pin_2)*%
X130065000Y-120000000D03*
%TO.P,J1,3,Pin_3*%
%TO.N,Net-(J1-Pin_3)*%
X127525000Y-122540000D03*
%TO.P,J1,4,Pin_4*%
%TO.N,Net-(J1-Pin_4)*%
X130065000Y-122540000D03*
%TO.P,J1,5,Pin_5*%
%TO.N,Net-(J1-Pin_5)*%
X127525000Y-125080000D03*
%TO.P,J1,6,Pin_6*%
%TO.N,Net-(J1-Pin_6)*%
X130065000Y-125080000D03*
%TO.P,J1,7,Pin_7*%
%TO.N,Net-(J1-Pin_7)*%
X127525000Y-127620000D03*
%TO.P,J1,8,Pin_8*%
%TO.N,Net-(J1-Pin_8)*%
X130065000Y-127620000D03*
%TO.P,J1,9,Pin_9*%
%TO.N,+3V3*%
X127525000Y-130160000D03*
%TO.P,J1,10,Pin_10*%
%TO.N,Net-(J1-Pin_10)*%
X130065000Y-130160000D03*
%TO.P,J1,11,Pin_11*%
%TO.N,unconnected-(J1-Pin_11-Pad11)*%
X127525000Y-132700000D03*
%TO.P,J1,12,Pin_12*%
%TO.N,Net-(J1-Pin_12)*%
X130065000Y-132700000D03*
%TO.P,J1,13,Pin_13*%
%TO.N,GND*%
X127525000Y-135240000D03*
%TO.P,J1,14,Pin_14*%
%TO.N,Net-(J1-Pin_14)*%
X130065000Y-135240000D03*
%TO.P,J1,15,Pin_15*%
%TO.N,Net-(J1-Pin_15)*%
X127525000Y-137780000D03*
%TO.P,J1,16,Pin_16*%
%TO.N,Net-(J1-Pin_16)*%
X130065000Y-137780000D03*
%TO.P,J1,17,Pin_17*%
%TO.N,Net-(J1-Pin_17)*%
X127525000Y-140320000D03*
%TO.P,J1,18,Pin_18*%
%TO.N,Net-(J1-Pin_18)*%
X130065000Y-140320000D03*
%TO.P,J1,19,Pin_19*%
%TO.N,Net-(J1-Pin_19)*%
X127525000Y-142860000D03*
%TO.P,J1,20,Pin_20*%
%TO.N,Net-(J1-Pin_20)*%
X130065000Y-142860000D03*
%TO.P,J1,21,Pin_21*%
%TO.N,Net-(J1-Pin_21)*%
X127525000Y-145400000D03*
%TO.P,J1,22,Pin_22*%
%TO.N,Net-(J1-Pin_22)*%
X130065000Y-145400000D03*
%TD*%
D12*
%TO.P,LED1,1*%
%TO.N,Net-(U1-QG)*%
X136030000Y-92200000D03*
D13*
%TO.P,LED1,2*%
%TO.N,Net-(U1-QH)*%
X138570000Y-92200000D03*
%TO.P,LED1,3*%
%TO.N,Net-(J1-Pin_2)*%
X141110000Y-92200000D03*
%TO.P,LED1,4*%
%TO.N,Net-(U1-QE)*%
X143650000Y-92200000D03*
%TO.P,LED1,5*%
%TO.N,Net-(U1-QF)*%
X146190000Y-92200000D03*
%TO.P,LED1,6*%
%TO.N,Net-(J1-Pin_4)*%
X148730000Y-92200000D03*
%TO.P,LED1,7*%
%TO.N,Net-(U1-QC)*%
X151270000Y-92200000D03*
%TO.P,LED1,8*%
%TO.N,Net-(U1-QD)*%
X153810000Y-92200000D03*
%TO.P,LED1,9*%
%TO.N,Net-(J1-Pin_6)*%
X156350000Y-92200000D03*
%TO.P,LED1,10*%
%TO.N,Net-(U1-QA)*%
X158890000Y-92200000D03*
%TO.P,LED1,11*%
%TO.N,Net-(U1-QB)*%
X161430000Y-92200000D03*
%TO.P,LED1,12*%
%TO.N,Net-(J1-Pin_8)*%
X163970000Y-92200000D03*
%TO.P,LED1,13*%
%TO.N,Net-(J1-Pin_7)*%
X163970000Y-45800000D03*
%TO.P,LED1,14*%
%TO.N,Net-(U2-QB)*%
X161430000Y-45800000D03*
%TO.P,LED1,15*%
%TO.N,Net-(U2-QA)*%
X158890000Y-45800000D03*
%TO.P,LED1,16*%
%TO.N,Net-(J1-Pin_5)*%
X156350000Y-45800000D03*
%TO.P,LED1,17*%
%TO.N,Net-(U2-QD)*%
X153810000Y-45800000D03*
%TO.P,LED1,18*%
%TO.N,Net-(U2-QC)*%
X151270000Y-45800000D03*
%TO.P,LED1,19*%
%TO.N,Net-(J1-Pin_3)*%
X148730000Y-45800000D03*
%TO.P,LED1,20*%
%TO.N,Net-(U2-QF)*%
X146190000Y-45800000D03*
%TO.P,LED1,21*%
%TO.N,Net-(U2-QE)*%
X143650000Y-45800000D03*
%TO.P,LED1,22*%
%TO.N,Net-(J1-Pin_1)*%
X141110000Y-45800000D03*
%TO.P,LED1,23*%
%TO.N,Net-(U2-QH)*%
X138570000Y-45800000D03*
%TO.P,LED1,24*%
%TO.N,Net-(U2-QG)*%
X136030000Y-45800000D03*
%TD*%
D12*
%TO.P,LED2,1*%
%TO.N,Net-(U1-QG)*%
X136030000Y-152700000D03*
D13*
%TO.P,LED2,2*%
%TO.N,Net-(U1-QH)*%
X138570000Y-152700000D03*
%TO.P,LED2,3*%
%TO.N,Net-(J1-Pin_16)*%
X141110000Y-152700000D03*
%TO.P,LED2,4*%
%TO.N,Net-(U1-QE)*%
X143650000Y-152700000D03*
%TO.P,LED2,5*%
%TO.N,Net-(U1-QF)*%
X146190000Y-152700000D03*
%TO.P,LED2,6*%
%TO.N,Net-(J1-Pin_18)*%
X148730000Y-152700000D03*
%TO.P,LED2,7*%
%TO.N,Net-(U1-QC)*%
X151270000Y-152700000D03*
%TO.P,LED2,8*%
%TO.N,Net-(U1-QD)*%
X153810000Y-152700000D03*
%TO.P,LED2,9*%
%TO.N,Net-(J1-Pin_20)*%
X156350000Y-152700000D03*
%TO.P,LED2,10*%
%TO.N,Net-(U1-QA)*%
X158890000Y-152700000D03*
%TO.P,LED2,11*%
%TO.N,Net-(U1-QB)*%
X161430000Y-152700000D03*
%TO.P,LED2,12*%
%TO.N,Net-(J1-Pin_22)*%
X163970000Y-152700000D03*
%TO.P,LED2,13*%
%TO.N,Net-(J1-Pin_21)*%
X163970000Y-106300000D03*
%TO.P,LED2,14*%
%TO.N,Net-(U2-QB)*%
X161430000Y-106300000D03*
%TO.P,LED2,15*%
%TO.N,Net-(U2-QA)*%
X158890000Y-106300000D03*
%TO.P,LED2,16*%
%TO.N,Net-(J1-Pin_19)*%
X156350000Y-106300000D03*
%TO.P,LED2,17*%
%TO.N,Net-(U2-QD)*%
X153810000Y-106300000D03*
%TO.P,LED2,18*%
%TO.N,Net-(U2-QC)*%
X151270000Y-106300000D03*
%TO.P,LED2,19*%
%TO.N,Net-(J1-Pin_17)*%
X148730000Y-106300000D03*
%TO.P,LED2,20*%
%TO.N,Net-(U2-QF)*%
X146190000Y-106300000D03*
%TO.P,LED2,21*%
%TO.N,Net-(U2-QE)*%
X143650000Y-106300000D03*
%TO.P,LED2,22*%
%TO.N,Net-(J1-Pin_15)*%
X141110000Y-106300000D03*
%TO.P,LED2,23*%
%TO.N,Net-(U2-QH)*%
X138570000Y-106300000D03*
%TO.P,LED2,24*%
%TO.N,Net-(U2-QG)*%
X136030000Y-106300000D03*
%TD*%
D14*
%TO.P,U1,16,VCC*%
%TO.N,+3V3*%
X132620000Y-78000000D03*
%TO.P,U1,15,QA*%
%TO.N,Net-(U1-QA)*%
X132620000Y-75460000D03*
%TO.P,U1,14,SER*%
%TO.N,Net-(J1-Pin_10)*%
X132620000Y-72920000D03*
%TO.P,U1,13,~{OE}*%
%TO.N,GND*%
X132620000Y-70380000D03*
%TO.P,U1,12,RCLK*%
%TO.N,Net-(J1-Pin_14)*%
X132620000Y-67840000D03*
%TO.P,U1,11,SRCLK*%
%TO.N,Net-(J1-Pin_12)*%
X132620000Y-65300000D03*
%TO.P,U1,10,~{SRCLR}*%
%TO.N,+3V3*%
X132620000Y-62760000D03*
%TO.P,U1,9,QH'*%
%TO.N,Net-(U1-QH')*%
X132620000Y-60220000D03*
%TO.P,U1,8,GND*%
%TO.N,GND*%
X125000000Y-60220000D03*
%TO.P,U1,7,QH*%
%TO.N,Net-(U1-QH)*%
X125000000Y-62760000D03*
%TO.P,U1,6,QG*%
%TO.N,Net-(U1-QG)*%
X125000000Y-65300000D03*
%TO.P,U1,5,QF*%
%TO.N,Net-(U1-QF)*%
X125000000Y-67840000D03*
%TO.P,U1,4,QE*%
%TO.N,Net-(U1-QE)*%
X125000000Y-70380000D03*
%TO.P,U1,3,QD*%
%TO.N,Net-(U1-QD)*%
X125000000Y-72920000D03*
%TO.P,U1,2,QC*%
%TO.N,Net-(U1-QC)*%
X125000000Y-75460000D03*
D15*
%TO.P,U1,1,QB*%
%TO.N,Net-(U1-QB)*%
X125000000Y-78000000D03*
%TD*%
D14*
%TO.P,U2,16,VCC*%
%TO.N,+3V3*%
X174620000Y-78000000D03*
%TO.P,U2,15,QA*%
%TO.N,Net-(U2-QA)*%
X174620000Y-75460000D03*
%TO.P,U2,14,SER*%
%TO.N,Net-(U1-QH')*%
X174620000Y-72920000D03*
%TO.P,U2,13,~{OE}*%
%TO.N,GND*%
X174620000Y-70380000D03*
%TO.P,U2,12,RCLK*%
%TO.N,Net-(J1-Pin_14)*%
X174620000Y-67840000D03*
%TO.P,U2,11,SRCLK*%
%TO.N,Net-(J1-Pin_12)*%
X174620000Y-65300000D03*
%TO.P,U2,10,~{SRCLR}*%
%TO.N,+3V3*%
X174620000Y-62760000D03*
%TO.P,U2,9,QH'*%
%TO.N,Net-(J2-Pin_10)*%
X174620000Y-60220000D03*
%TO.P,U2,8,GND*%
%TO.N,GND*%
X167000000Y-60220000D03*
%TO.P,U2,7,QH*%
%TO.N,Net-(U2-QH)*%
X167000000Y-62760000D03*
%TO.P,U2,6,QG*%
%TO.N,Net-(U2-QG)*%
X167000000Y-65300000D03*
%TO.P,U2,5,QF*%
%TO.N,Net-(U2-QF)*%
X167000000Y-67840000D03*
%TO.P,U2,4,QE*%
%TO.N,Net-(U2-QE)*%
X167000000Y-70380000D03*
%TO.P,U2,3,QD*%
%TO.N,Net-(U2-QD)*%
X167000000Y-72920000D03*
%TO.P,U2,2,QC*%
%TO.N,Net-(U2-QC)*%
X167000000Y-75460000D03*
D15*
%TO.P,U2,1,QB*%
%TO.N,Net-(U2-QB)*%
X167000000Y-78000000D03*
%TD*%
D16*
%TO.N,GND*%
X169638300Y-70147900D03*
X169638300Y-113653400D03*
%TO.N,+3V3*%
X132620000Y-112819400D03*
%TO.N,Net-(U2-QG)*%
X163167000Y-59839000D03*
%TO.N,Net-(U2-QF)*%
X157740000Y-66727100D03*
%TO.N,Net-(U2-QA)*%
X164628900Y-71105500D03*
%TO.N,Net-(U1-QF)*%
X126597400Y-76312900D03*
%TO.N,Net-(U1-QE)*%
X143650000Y-86967100D03*
%TO.N,Net-(U1-QH)*%
X127613000Y-79205900D03*
%TO.N,Net-(U1-QG)*%
X126640300Y-80171000D03*
%TD*%
D17*
%TO.N,GND*%
X167000000Y-60220000D02*
X168650100Y-60220000D01*
X125000000Y-60220000D02*
X126650100Y-60220000D01*
X128495900Y-62065800D02*
X126650100Y-60220000D01*
X128495900Y-79527500D02*
X128495900Y-62065800D01*
X126218600Y-81804800D02*
X128495900Y-79527500D01*
X126218600Y-133933600D02*
X126218600Y-81804800D01*
X127525000Y-135240000D02*
X126218600Y-133933600D01*
X169638300Y-61208200D02*
X169638300Y-70147900D01*
X168650100Y-60220000D02*
X169638300Y-61208200D01*
X169638300Y-70147900D02*
X169638300Y-113653400D01*
%TO.N,+3V3*%
X174620000Y-78000000D02*
X173795000Y-78000000D01*
X174620000Y-62760000D02*
X172969900Y-62760000D01*
X174019700Y-78224700D02*
X173795000Y-78000000D01*
X174019700Y-127940300D02*
X174019700Y-78224700D01*
X171800000Y-130160000D02*
X174019700Y-127940300D01*
X172969900Y-77174900D02*
X173795000Y-78000000D01*
X172969900Y-62760000D02*
X172969900Y-77174900D01*
X132620000Y-78000000D02*
X132620000Y-112819400D01*
X134754700Y-77515400D02*
X134270100Y-78000000D01*
X134754700Y-63244600D02*
X134754700Y-77515400D01*
X134270100Y-62760000D02*
X134754700Y-63244600D01*
X132620000Y-62760000D02*
X134270100Y-62760000D01*
X132620000Y-78000000D02*
X134270100Y-78000000D01*
D18*
%TO.N,Net-(J2-Pin_10)*%
X169260000Y-130160000D02*
X170435100Y-130160000D01*
X174620000Y-60220000D02*
X173094900Y-60220000D01*
X172317800Y-60997100D02*
X173094900Y-60220000D01*
X172317800Y-116058600D02*
X172317800Y-60997100D01*
X173444600Y-117185400D02*
X172317800Y-116058600D01*
X173444600Y-127701900D02*
X173444600Y-117185400D01*
X172161600Y-128984900D02*
X173444600Y-127701900D01*
X171242900Y-128984900D02*
X172161600Y-128984900D01*
X170435100Y-129792700D02*
X171242900Y-128984900D01*
X170435100Y-130160000D02*
X170435100Y-129792700D01*
%TO.N,Net-(J1-Pin_7)*%
X163970000Y-45800000D02*
X163970000Y-47125100D01*
X171800000Y-127620000D02*
X171800000Y-126444900D01*
X171235800Y-54390900D02*
X163970000Y-47125100D01*
X171235800Y-116508300D02*
X171235800Y-54390900D01*
X172994400Y-118266900D02*
X171235800Y-116508300D01*
X172994400Y-125615700D02*
X172994400Y-118266900D01*
X172165200Y-126444900D02*
X172994400Y-125615700D01*
X171800000Y-126444900D02*
X172165200Y-126444900D01*
%TO.N,Net-(J1-Pin_6)*%
X168894700Y-123904900D02*
X169260000Y-123904900D01*
X167895200Y-122905400D02*
X168894700Y-123904900D01*
X167895200Y-94413000D02*
X167895200Y-122905400D01*
X164357100Y-90874900D02*
X167895200Y-94413000D01*
X156350000Y-90874900D02*
X164357100Y-90874900D01*
X156350000Y-92200000D02*
X156350000Y-90874900D01*
X169260000Y-125080000D02*
X169260000Y-123904900D01*
%TO.N,Net-(J1-Pin_5)*%
X156350000Y-45800000D02*
X156350000Y-44474900D01*
X171800000Y-125080000D02*
X171800000Y-123904900D01*
X156800100Y-44024800D02*
X156350000Y-44474900D01*
X161373500Y-44024800D02*
X156800100Y-44024800D01*
X162700000Y-45351300D02*
X161373500Y-44024800D01*
X162700000Y-52722000D02*
X162700000Y-45351300D01*
X170596700Y-60618700D02*
X162700000Y-52722000D01*
X170596700Y-123028500D02*
X170596700Y-60618700D01*
X171473100Y-123904900D02*
X170596700Y-123028500D01*
X171800000Y-123904900D02*
X171473100Y-123904900D01*
%TO.N,Net-(U2-QG)*%
X136955100Y-104049800D02*
X136030000Y-104974900D01*
X136955100Y-48050200D02*
X136955100Y-104049800D01*
X136030000Y-47125100D02*
X136955100Y-48050200D01*
X136030000Y-45800000D02*
X136030000Y-47125100D01*
X136030000Y-106300000D02*
X136030000Y-104974900D01*
X165474900Y-62146900D02*
X163167000Y-59839000D01*
X165474900Y-65300000D02*
X165474900Y-62146900D01*
X167000000Y-65300000D02*
X165474900Y-65300000D01*
%TO.N,Net-(U2-QH)*%
X138570000Y-106300000D02*
X138570000Y-104974900D01*
X138570000Y-45800000D02*
X138570000Y-47125100D01*
X137610900Y-104015800D02*
X138570000Y-104974900D01*
X137610900Y-48084200D02*
X137610900Y-104015800D01*
X138570000Y-47125100D02*
X137610900Y-48084200D01*
%TO.N,Net-(U2-QE)*%
X167000000Y-70380000D02*
X165474900Y-70380000D01*
X142677700Y-104002600D02*
X143650000Y-104974900D01*
X142677700Y-48097400D02*
X142677700Y-104002600D01*
X143650000Y-47125100D02*
X142677700Y-48097400D01*
X143650000Y-45800000D02*
X143650000Y-47125100D01*
X143650000Y-106300000D02*
X143650000Y-104974900D01*
X144975100Y-44474900D02*
X143650000Y-45800000D01*
X146603500Y-44474900D02*
X144975100Y-44474900D01*
X147202600Y-45074000D02*
X146603500Y-44474900D01*
X147202600Y-46072600D02*
X147202600Y-45074000D01*
X148255200Y-47125200D02*
X147202600Y-46072600D01*
X149188400Y-47125200D02*
X148255200Y-47125200D01*
X150000000Y-46313600D02*
X149188400Y-47125200D01*
X150000000Y-45270000D02*
X150000000Y-46313600D01*
X150795200Y-44474800D02*
X150000000Y-45270000D01*
X154268400Y-44474800D02*
X150795200Y-44474800D01*
X155080000Y-45286400D02*
X154268400Y-44474800D01*
X155080000Y-46330000D02*
X155080000Y-45286400D01*
X155875200Y-47125200D02*
X155080000Y-46330000D01*
X156815600Y-47125200D02*
X155875200Y-47125200D01*
X157620000Y-46320800D02*
X156815600Y-47125200D01*
X157620000Y-45286500D02*
X157620000Y-46320800D01*
X158431600Y-44474900D02*
X157620000Y-45286500D01*
X159298600Y-44474900D02*
X158431600Y-44474900D01*
X160014700Y-45191000D02*
X159298600Y-44474900D01*
X160014700Y-62565400D02*
X160014700Y-45191000D01*
X160623600Y-63174300D02*
X160014700Y-62565400D01*
X160623600Y-65528700D02*
X160623600Y-63174300D01*
X165474900Y-70380000D02*
X160623600Y-65528700D01*
%TO.N,Net-(U2-QF)*%
X146190000Y-45800000D02*
X146190000Y-47125100D01*
X145211600Y-79255500D02*
X157740000Y-66727100D01*
X145211600Y-103996500D02*
X145211600Y-79255500D01*
X146190000Y-104974900D02*
X145211600Y-103996500D01*
X146190000Y-106300000D02*
X146190000Y-104974900D01*
X157740000Y-58675100D02*
X157740000Y-66727100D01*
X146190000Y-47125100D02*
X157740000Y-58675100D01*
%TO.N,Net-(U2-QC)*%
X167000000Y-75460000D02*
X165474900Y-75460000D01*
X151270000Y-45800000D02*
X151270000Y-47125100D01*
X158372900Y-54228000D02*
X151270000Y-47125100D01*
X158372900Y-63151600D02*
X158372900Y-54228000D01*
X158598100Y-63376800D02*
X158372900Y-63151600D01*
X158598100Y-68583200D02*
X158598100Y-63376800D01*
X165474900Y-75460000D02*
X158598100Y-68583200D01*
X151270000Y-106300000D02*
X151270000Y-104974900D01*
X150317500Y-90617400D02*
X165474900Y-75460000D01*
X150317500Y-104022400D02*
X150317500Y-90617400D01*
X151270000Y-104974900D02*
X150317500Y-104022400D01*
%TO.N,Net-(U2-QD)*%
X153810000Y-45800000D02*
X153810000Y-47125100D01*
X153810000Y-106300000D02*
X153810000Y-104974900D01*
X158823100Y-52138200D02*
X153810000Y-47125100D01*
X158823100Y-62647100D02*
X158823100Y-52138200D01*
X159498400Y-63322400D02*
X158823100Y-62647100D01*
X159498400Y-67000700D02*
X159498400Y-63322400D01*
X165417700Y-72920000D02*
X159498400Y-67000700D01*
X167000000Y-72920000D02*
X165417700Y-72920000D01*
X155424800Y-103360100D02*
X153810000Y-104974900D01*
X155424800Y-87114000D02*
X155424800Y-103360100D01*
X165808800Y-76730000D02*
X155424800Y-87114000D01*
X167787200Y-76730000D02*
X165808800Y-76730000D01*
X168559900Y-75957300D02*
X167787200Y-76730000D01*
X168559900Y-74479900D02*
X168559900Y-75957300D01*
X167000000Y-72920000D02*
X168559900Y-74479900D01*
%TO.N,Net-(U2-QA)*%
X158890000Y-45800000D02*
X158890000Y-47125100D01*
X159273300Y-47508400D02*
X158890000Y-47125100D01*
X159273300Y-62460600D02*
X159273300Y-47508400D01*
X160173500Y-63360800D02*
X159273300Y-62460600D01*
X160173500Y-66650100D02*
X160173500Y-63360800D01*
X164628900Y-71105500D02*
X160173500Y-66650100D01*
%TO.N,Net-(U2-QB)*%
X161430000Y-64350500D02*
X161430000Y-45800000D01*
X166189500Y-69110000D02*
X161430000Y-64350500D01*
X167763600Y-69110000D02*
X166189500Y-69110000D01*
X168559900Y-69906300D02*
X167763600Y-69110000D01*
X168559900Y-73254500D02*
X168559900Y-69906300D01*
X169010000Y-73704600D02*
X168559900Y-73254500D01*
X169010000Y-77515100D02*
X169010000Y-73704600D01*
X168525100Y-78000000D02*
X169010000Y-77515100D01*
X167000000Y-78000000D02*
X168525100Y-78000000D01*
%TO.N,Net-(U1-QB)*%
X160494900Y-150439800D02*
X161430000Y-151374900D01*
X160494900Y-94460200D02*
X160494900Y-150439800D01*
X161430000Y-93525100D02*
X160494900Y-94460200D01*
X161430000Y-92200000D02*
X161430000Y-93525100D01*
X161430000Y-152700000D02*
X161430000Y-151374900D01*
%TO.N,Net-(U1-QA)*%
X159828100Y-150436800D02*
X158890000Y-151374900D01*
X159828100Y-94463200D02*
X159828100Y-150436800D01*
X158890000Y-93525100D02*
X159828100Y-94463200D01*
X158890000Y-92200000D02*
X158890000Y-93525100D01*
X158890000Y-152700000D02*
X158890000Y-151374900D01*
%TO.N,Net-(U1-QD)*%
X152834600Y-150399500D02*
X153810000Y-151374900D01*
X152834600Y-94500500D02*
X152834600Y-150399500D01*
X153810000Y-93525100D02*
X152834600Y-94500500D01*
X153810000Y-92200000D02*
X153810000Y-93525100D01*
X153810000Y-152700000D02*
X153810000Y-151374900D01*
%TO.N,Net-(U1-QC)*%
X151270000Y-92200000D02*
X151270000Y-93525100D01*
X151270000Y-152700000D02*
X151270000Y-151374900D01*
X152245000Y-150399900D02*
X151270000Y-151374900D01*
X152245000Y-94500100D02*
X152245000Y-150399900D01*
X151270000Y-93525100D02*
X152245000Y-94500100D01*
%TO.N,Net-(U1-QF)*%
X147148700Y-150416200D02*
X146190000Y-151374900D01*
X147148700Y-94483800D02*
X147148700Y-150416200D01*
X146190000Y-93525100D02*
X147148700Y-94483800D01*
X146190000Y-92200000D02*
X146190000Y-93525100D01*
X146190000Y-152700000D02*
X146190000Y-151374900D01*
X125000000Y-67840000D02*
X126525100Y-67840000D01*
X126525100Y-76240600D02*
X126597400Y-76312900D01*
X126525100Y-67840000D02*
X126525100Y-76240600D01*
%TO.N,Net-(U1-QE)*%
X144577700Y-94452800D02*
X143650000Y-93525100D01*
X144577700Y-150447200D02*
X144577700Y-94452800D01*
X143650000Y-151374900D02*
X144577700Y-150447200D01*
X143650000Y-152700000D02*
X143650000Y-151374900D01*
X143650000Y-92200000D02*
X143650000Y-93525100D01*
X143650000Y-92200000D02*
X143650000Y-86967100D01*
%TO.N,Net-(U1-QH)*%
X139522400Y-150422500D02*
X138570000Y-151374900D01*
X139522400Y-94477500D02*
X139522400Y-150422500D01*
X138570000Y-93525100D02*
X139522400Y-94477500D01*
X138570000Y-92200000D02*
X138570000Y-93525100D01*
X138570000Y-152700000D02*
X138570000Y-151374900D01*
X125000000Y-62760000D02*
X126525100Y-62760000D01*
X127843800Y-78975100D02*
X127613000Y-79205900D01*
X127843800Y-64078700D02*
X127843800Y-78975100D01*
X126525100Y-62760000D02*
X127843800Y-64078700D01*
%TO.N,Net-(U1-QG)*%
X125000000Y-65300000D02*
X126525100Y-65300000D01*
X135104900Y-150449800D02*
X136030000Y-151374900D01*
X135104900Y-94450200D02*
X135104900Y-150449800D01*
X136030000Y-93525100D02*
X135104900Y-94450200D01*
X136030000Y-92200000D02*
X136030000Y-93525100D01*
X136030000Y-152700000D02*
X136030000Y-151374900D01*
X127366900Y-66141800D02*
X126525100Y-65300000D01*
X127366900Y-76624100D02*
X127366900Y-66141800D01*
X126640300Y-77350700D02*
X127366900Y-76624100D01*
X126640300Y-80171000D02*
X126640300Y-77350700D01*
%TO.N,Net-(J1-Pin_21)*%
X171434700Y-144224900D02*
X171800000Y-144224900D01*
X170530000Y-143320200D02*
X171434700Y-144224900D01*
X170530000Y-132241500D02*
X170530000Y-143320200D01*
X169813300Y-131524800D02*
X170530000Y-132241500D01*
X168891700Y-131524800D02*
X169813300Y-131524800D01*
X163970000Y-126603100D02*
X168891700Y-131524800D01*
X163970000Y-106300000D02*
X163970000Y-126603100D01*
X171800000Y-145400000D02*
X171800000Y-144224900D01*
%TO.N,Net-(J1-Pin_18)*%
X168894700Y-141495100D02*
X169260000Y-141495100D01*
X162667600Y-147722200D02*
X168894700Y-141495100D01*
X162667600Y-153186100D02*
X162667600Y-147722200D01*
X161828600Y-154025100D02*
X162667600Y-153186100D01*
X148730000Y-154025100D02*
X161828600Y-154025100D01*
X148730000Y-152700000D02*
X148730000Y-154025100D01*
X169260000Y-140320000D02*
X169260000Y-141495100D01*
%TO.N,Net-(J1-Pin_16)*%
X130430200Y-138955100D02*
X130065000Y-138955100D01*
X131429800Y-139954700D02*
X130430200Y-138955100D01*
X131429800Y-150159600D02*
X131429800Y-139954700D01*
X135295300Y-154025100D02*
X131429800Y-150159600D01*
X141110000Y-154025100D02*
X135295300Y-154025100D01*
X141110000Y-152700000D02*
X141110000Y-154025100D01*
X130065000Y-137780000D02*
X130065000Y-138955100D01*
%TO.N,Net-(J1-Pin_14)*%
X130430200Y-134064900D02*
X130065000Y-134064900D01*
X132175900Y-132319200D02*
X130430200Y-134064900D01*
X132175900Y-113874000D02*
X132175900Y-132319200D01*
X131094900Y-112793000D02*
X132175900Y-113874000D01*
X131094900Y-77533800D02*
X131094900Y-112793000D01*
X132043500Y-76585200D02*
X131094900Y-77533800D01*
X133511300Y-76585200D02*
X132043500Y-76585200D01*
X134145100Y-75951400D02*
X133511300Y-76585200D01*
X134145100Y-67840000D02*
X134145100Y-75951400D01*
X132620000Y-67840000D02*
X134145100Y-67840000D01*
X130065000Y-135240000D02*
X130065000Y-134064900D01*
%TO.N,Net-(J1-Pin_12)*%
X132620000Y-65300000D02*
X131094900Y-65300000D01*
X130065000Y-132700000D02*
X130065000Y-131524900D01*
X129699700Y-131524900D02*
X130065000Y-131524900D01*
X128885000Y-130710200D02*
X129699700Y-131524900D01*
X128885000Y-124534800D02*
X128885000Y-130710200D01*
X129515000Y-123904800D02*
X128885000Y-124534800D01*
X130440800Y-123904800D02*
X129515000Y-123904800D01*
X131240200Y-123105400D02*
X130440800Y-123904800D01*
X131240200Y-117249200D02*
X131240200Y-123105400D01*
X130194700Y-116203700D02*
X131240200Y-117249200D01*
X130194700Y-66200200D02*
X130194700Y-116203700D01*
X131094900Y-65300000D02*
X130194700Y-66200200D01*
%TO.N,Net-(J1-Pin_10)*%
X132620000Y-72920000D02*
X131094900Y-72920000D01*
X130065000Y-130160000D02*
X130065000Y-128984900D01*
X130430200Y-128984900D02*
X130065000Y-128984900D01*
X131704300Y-127710800D02*
X130430200Y-128984900D01*
X131704300Y-114357100D02*
X131704300Y-127710800D01*
X130644800Y-113297600D02*
X131704300Y-114357100D01*
X130644800Y-73370100D02*
X130644800Y-113297600D01*
X131094900Y-72920000D02*
X130644800Y-73370100D01*
%TO.N,Net-(J1-Pin_8)*%
X168894700Y-126444900D02*
X169260000Y-126444900D01*
X165295100Y-122845300D02*
X168894700Y-126444900D01*
X165295100Y-94850200D02*
X165295100Y-122845300D01*
X163970000Y-93525100D02*
X165295100Y-94850200D01*
X163970000Y-92200000D02*
X163970000Y-93525100D01*
X169260000Y-127620000D02*
X169260000Y-126444900D01*
%TO.N,Net-(J1-Pin_3)*%
X148730000Y-45800000D02*
X148730000Y-44474900D01*
X127525000Y-122540000D02*
X127525000Y-121364900D01*
X128356000Y-121364900D02*
X127525000Y-121364900D01*
X128708600Y-121012300D02*
X128356000Y-121364900D01*
X128708600Y-82096900D02*
X128708600Y-121012300D01*
X129744600Y-81060900D02*
X128708600Y-82096900D01*
X129744600Y-50359100D02*
X129744600Y-81060900D01*
X135628800Y-44474900D02*
X129744600Y-50359100D01*
X138962100Y-44474900D02*
X135628800Y-44474900D01*
X139542200Y-45055000D02*
X138962100Y-44474900D01*
X139542200Y-45940900D02*
X139542200Y-45055000D01*
X140768200Y-47166900D02*
X139542200Y-45940900D01*
X141453800Y-47166900D02*
X140768200Y-47166900D01*
X142247400Y-46373300D02*
X141453800Y-47166900D01*
X142247400Y-45483800D02*
X142247400Y-46373300D01*
X143706400Y-44024800D02*
X142247400Y-45483800D01*
X148279900Y-44024800D02*
X143706400Y-44024800D01*
X148730000Y-44474900D02*
X148279900Y-44024800D01*
%TO.N,Net-(J1-Pin_1)*%
X127525000Y-82325700D02*
X127525000Y-120000000D01*
X129237300Y-80613400D02*
X127525000Y-82325700D01*
X129237300Y-50229700D02*
X129237300Y-80613400D01*
X135473700Y-43993300D02*
X129237300Y-50229700D01*
X140628400Y-43993300D02*
X135473700Y-43993300D01*
X141110000Y-44474900D02*
X140628400Y-43993300D01*
X141110000Y-45800000D02*
X141110000Y-44474900D01*
%TD*%
M02*
