%TF.GenerationSoftware,KiCad,Pcbnew,7.0.1*%
%TF.CreationDate,2023-03-17T17:08:37-04:00*%
%TF.ProjectId,ticker,7469636b-6572-42e6-9b69-6361645f7063,rev?*%
%TF.SameCoordinates,Original*%
%TF.FileFunction,Legend,Bot*%
%TF.FilePolarity,Positive*%
%FSLAX46Y46*%
G04 Gerber Fmt 4.6, Leading zero omitted, Abs format (unit mm)*
G04 Created by KiCad (PCBNEW 7.0.1) date 2023-03-17 17:08:37*
%MOMM*%
%LPD*%
G01*
G04 APERTURE LIST*
%ADD10C,0.150000*%
%ADD11C,0.200000*%
%ADD12C,0.300000*%
%ADD13C,0.500000*%
%ADD14C,0.120000*%
G04 APERTURE END LIST*
D10*
X128077619Y-96542857D02*
X129077619Y-96780952D01*
X129077619Y-96780952D02*
X128363333Y-96971428D01*
X128363333Y-96971428D02*
X129077619Y-97161904D01*
X129077619Y-97161904D02*
X128077619Y-97400000D01*
X129077619Y-97780952D02*
X128410952Y-97780952D01*
X128077619Y-97780952D02*
X128125238Y-97733333D01*
X128125238Y-97733333D02*
X128172857Y-97780952D01*
X128172857Y-97780952D02*
X128125238Y-97828571D01*
X128125238Y-97828571D02*
X128077619Y-97780952D01*
X128077619Y-97780952D02*
X128172857Y-97780952D01*
X129077619Y-98257142D02*
X128410952Y-98257142D01*
X128601428Y-98257142D02*
X128506190Y-98304761D01*
X128506190Y-98304761D02*
X128458571Y-98352380D01*
X128458571Y-98352380D02*
X128410952Y-98447618D01*
X128410952Y-98447618D02*
X128410952Y-98542856D01*
X129030000Y-99257142D02*
X129077619Y-99161904D01*
X129077619Y-99161904D02*
X129077619Y-98971428D01*
X129077619Y-98971428D02*
X129030000Y-98876190D01*
X129030000Y-98876190D02*
X128934761Y-98828571D01*
X128934761Y-98828571D02*
X128553809Y-98828571D01*
X128553809Y-98828571D02*
X128458571Y-98876190D01*
X128458571Y-98876190D02*
X128410952Y-98971428D01*
X128410952Y-98971428D02*
X128410952Y-99161904D01*
X128410952Y-99161904D02*
X128458571Y-99257142D01*
X128458571Y-99257142D02*
X128553809Y-99304761D01*
X128553809Y-99304761D02*
X128649047Y-99304761D01*
X128649047Y-99304761D02*
X128744285Y-98828571D01*
X128410952Y-100352381D02*
X128410952Y-100733333D01*
X128077619Y-100495238D02*
X128934761Y-100495238D01*
X128934761Y-100495238D02*
X129030000Y-100542857D01*
X129030000Y-100542857D02*
X129077619Y-100638095D01*
X129077619Y-100638095D02*
X129077619Y-100733333D01*
X129077619Y-101209524D02*
X129030000Y-101114286D01*
X129030000Y-101114286D02*
X128982380Y-101066667D01*
X128982380Y-101066667D02*
X128887142Y-101019048D01*
X128887142Y-101019048D02*
X128601428Y-101019048D01*
X128601428Y-101019048D02*
X128506190Y-101066667D01*
X128506190Y-101066667D02*
X128458571Y-101114286D01*
X128458571Y-101114286D02*
X128410952Y-101209524D01*
X128410952Y-101209524D02*
X128410952Y-101352381D01*
X128410952Y-101352381D02*
X128458571Y-101447619D01*
X128458571Y-101447619D02*
X128506190Y-101495238D01*
X128506190Y-101495238D02*
X128601428Y-101542857D01*
X128601428Y-101542857D02*
X128887142Y-101542857D01*
X128887142Y-101542857D02*
X128982380Y-101495238D01*
X128982380Y-101495238D02*
X129030000Y-101447619D01*
X129030000Y-101447619D02*
X129077619Y-101352381D01*
X129077619Y-101352381D02*
X129077619Y-101209524D01*
X129077619Y-103161905D02*
X128553809Y-103161905D01*
X128553809Y-103161905D02*
X128458571Y-103114286D01*
X128458571Y-103114286D02*
X128410952Y-103019048D01*
X128410952Y-103019048D02*
X128410952Y-102828572D01*
X128410952Y-102828572D02*
X128458571Y-102733334D01*
X129030000Y-103161905D02*
X129077619Y-103066667D01*
X129077619Y-103066667D02*
X129077619Y-102828572D01*
X129077619Y-102828572D02*
X129030000Y-102733334D01*
X129030000Y-102733334D02*
X128934761Y-102685715D01*
X128934761Y-102685715D02*
X128839523Y-102685715D01*
X128839523Y-102685715D02*
X128744285Y-102733334D01*
X128744285Y-102733334D02*
X128696666Y-102828572D01*
X128696666Y-102828572D02*
X128696666Y-103066667D01*
X128696666Y-103066667D02*
X128649047Y-103161905D01*
X129077619Y-104066667D02*
X128077619Y-104066667D01*
X129030000Y-104066667D02*
X129077619Y-103971429D01*
X129077619Y-103971429D02*
X129077619Y-103780953D01*
X129077619Y-103780953D02*
X129030000Y-103685715D01*
X129030000Y-103685715D02*
X128982380Y-103638096D01*
X128982380Y-103638096D02*
X128887142Y-103590477D01*
X128887142Y-103590477D02*
X128601428Y-103590477D01*
X128601428Y-103590477D02*
X128506190Y-103638096D01*
X128506190Y-103638096D02*
X128458571Y-103685715D01*
X128458571Y-103685715D02*
X128410952Y-103780953D01*
X128410952Y-103780953D02*
X128410952Y-103971429D01*
X128410952Y-103971429D02*
X128458571Y-104066667D01*
X128410952Y-104542858D02*
X129268095Y-104542858D01*
X129268095Y-104542858D02*
X129363333Y-104495239D01*
X129363333Y-104495239D02*
X129410952Y-104400001D01*
X129410952Y-104400001D02*
X129410952Y-104352382D01*
X128077619Y-104542858D02*
X128125238Y-104495239D01*
X128125238Y-104495239D02*
X128172857Y-104542858D01*
X128172857Y-104542858D02*
X128125238Y-104590477D01*
X128125238Y-104590477D02*
X128077619Y-104542858D01*
X128077619Y-104542858D02*
X128172857Y-104542858D01*
X129077619Y-105447619D02*
X128553809Y-105447619D01*
X128553809Y-105447619D02*
X128458571Y-105400000D01*
X128458571Y-105400000D02*
X128410952Y-105304762D01*
X128410952Y-105304762D02*
X128410952Y-105114286D01*
X128410952Y-105114286D02*
X128458571Y-105019048D01*
X129030000Y-105447619D02*
X129077619Y-105352381D01*
X129077619Y-105352381D02*
X129077619Y-105114286D01*
X129077619Y-105114286D02*
X129030000Y-105019048D01*
X129030000Y-105019048D02*
X128934761Y-104971429D01*
X128934761Y-104971429D02*
X128839523Y-104971429D01*
X128839523Y-104971429D02*
X128744285Y-105019048D01*
X128744285Y-105019048D02*
X128696666Y-105114286D01*
X128696666Y-105114286D02*
X128696666Y-105352381D01*
X128696666Y-105352381D02*
X128649047Y-105447619D01*
X129030000Y-106352381D02*
X129077619Y-106257143D01*
X129077619Y-106257143D02*
X129077619Y-106066667D01*
X129077619Y-106066667D02*
X129030000Y-105971429D01*
X129030000Y-105971429D02*
X128982380Y-105923810D01*
X128982380Y-105923810D02*
X128887142Y-105876191D01*
X128887142Y-105876191D02*
X128601428Y-105876191D01*
X128601428Y-105876191D02*
X128506190Y-105923810D01*
X128506190Y-105923810D02*
X128458571Y-105971429D01*
X128458571Y-105971429D02*
X128410952Y-106066667D01*
X128410952Y-106066667D02*
X128410952Y-106257143D01*
X128410952Y-106257143D02*
X128458571Y-106352381D01*
X129030000Y-107161905D02*
X129077619Y-107066667D01*
X129077619Y-107066667D02*
X129077619Y-106876191D01*
X129077619Y-106876191D02*
X129030000Y-106780953D01*
X129030000Y-106780953D02*
X128934761Y-106733334D01*
X128934761Y-106733334D02*
X128553809Y-106733334D01*
X128553809Y-106733334D02*
X128458571Y-106780953D01*
X128458571Y-106780953D02*
X128410952Y-106876191D01*
X128410952Y-106876191D02*
X128410952Y-107066667D01*
X128410952Y-107066667D02*
X128458571Y-107161905D01*
X128458571Y-107161905D02*
X128553809Y-107209524D01*
X128553809Y-107209524D02*
X128649047Y-107209524D01*
X128649047Y-107209524D02*
X128744285Y-106733334D01*
X128410952Y-107638096D02*
X129077619Y-107638096D01*
X128506190Y-107638096D02*
X128458571Y-107685715D01*
X128458571Y-107685715D02*
X128410952Y-107780953D01*
X128410952Y-107780953D02*
X128410952Y-107923810D01*
X128410952Y-107923810D02*
X128458571Y-108019048D01*
X128458571Y-108019048D02*
X128553809Y-108066667D01*
X128553809Y-108066667D02*
X129077619Y-108066667D01*
X128410952Y-108400001D02*
X128410952Y-108780953D01*
X128077619Y-108542858D02*
X128934761Y-108542858D01*
X128934761Y-108542858D02*
X129030000Y-108590477D01*
X129030000Y-108590477D02*
X129077619Y-108685715D01*
X129077619Y-108685715D02*
X129077619Y-108780953D01*
X129077619Y-109876192D02*
X128077619Y-109876192D01*
X128458571Y-109876192D02*
X128410952Y-109971430D01*
X128410952Y-109971430D02*
X128410952Y-110161906D01*
X128410952Y-110161906D02*
X128458571Y-110257144D01*
X128458571Y-110257144D02*
X128506190Y-110304763D01*
X128506190Y-110304763D02*
X128601428Y-110352382D01*
X128601428Y-110352382D02*
X128887142Y-110352382D01*
X128887142Y-110352382D02*
X128982380Y-110304763D01*
X128982380Y-110304763D02*
X129030000Y-110257144D01*
X129030000Y-110257144D02*
X129077619Y-110161906D01*
X129077619Y-110161906D02*
X129077619Y-109971430D01*
X129077619Y-109971430D02*
X129030000Y-109876192D01*
X129077619Y-110923811D02*
X129030000Y-110828573D01*
X129030000Y-110828573D02*
X128982380Y-110780954D01*
X128982380Y-110780954D02*
X128887142Y-110733335D01*
X128887142Y-110733335D02*
X128601428Y-110733335D01*
X128601428Y-110733335D02*
X128506190Y-110780954D01*
X128506190Y-110780954D02*
X128458571Y-110828573D01*
X128458571Y-110828573D02*
X128410952Y-110923811D01*
X128410952Y-110923811D02*
X128410952Y-111066668D01*
X128410952Y-111066668D02*
X128458571Y-111161906D01*
X128458571Y-111161906D02*
X128506190Y-111209525D01*
X128506190Y-111209525D02*
X128601428Y-111257144D01*
X128601428Y-111257144D02*
X128887142Y-111257144D01*
X128887142Y-111257144D02*
X128982380Y-111209525D01*
X128982380Y-111209525D02*
X129030000Y-111161906D01*
X129030000Y-111161906D02*
X129077619Y-111066668D01*
X129077619Y-111066668D02*
X129077619Y-110923811D01*
X129077619Y-112114287D02*
X128553809Y-112114287D01*
X128553809Y-112114287D02*
X128458571Y-112066668D01*
X128458571Y-112066668D02*
X128410952Y-111971430D01*
X128410952Y-111971430D02*
X128410952Y-111780954D01*
X128410952Y-111780954D02*
X128458571Y-111685716D01*
X129030000Y-112114287D02*
X129077619Y-112019049D01*
X129077619Y-112019049D02*
X129077619Y-111780954D01*
X129077619Y-111780954D02*
X129030000Y-111685716D01*
X129030000Y-111685716D02*
X128934761Y-111638097D01*
X128934761Y-111638097D02*
X128839523Y-111638097D01*
X128839523Y-111638097D02*
X128744285Y-111685716D01*
X128744285Y-111685716D02*
X128696666Y-111780954D01*
X128696666Y-111780954D02*
X128696666Y-112019049D01*
X128696666Y-112019049D02*
X128649047Y-112114287D01*
X129077619Y-112590478D02*
X128410952Y-112590478D01*
X128601428Y-112590478D02*
X128506190Y-112638097D01*
X128506190Y-112638097D02*
X128458571Y-112685716D01*
X128458571Y-112685716D02*
X128410952Y-112780954D01*
X128410952Y-112780954D02*
X128410952Y-112876192D01*
X129077619Y-113638097D02*
X128077619Y-113638097D01*
X129030000Y-113638097D02*
X129077619Y-113542859D01*
X129077619Y-113542859D02*
X129077619Y-113352383D01*
X129077619Y-113352383D02*
X129030000Y-113257145D01*
X129030000Y-113257145D02*
X128982380Y-113209526D01*
X128982380Y-113209526D02*
X128887142Y-113161907D01*
X128887142Y-113161907D02*
X128601428Y-113161907D01*
X128601428Y-113161907D02*
X128506190Y-113209526D01*
X128506190Y-113209526D02*
X128458571Y-113257145D01*
X128458571Y-113257145D02*
X128410952Y-113352383D01*
X128410952Y-113352383D02*
X128410952Y-113542859D01*
X128410952Y-113542859D02*
X128458571Y-113638097D01*
X128696666Y-114114288D02*
X128696666Y-114876193D01*
X128410952Y-115352383D02*
X128696666Y-116114288D01*
X128696666Y-116114288D02*
X128982380Y-115352383D01*
X170789047Y-114200000D02*
X170503333Y-114961904D01*
X170503333Y-114961904D02*
X170217619Y-114200000D01*
X170503333Y-113723809D02*
X170503333Y-112961905D01*
X171122380Y-112580952D02*
X170122380Y-112342857D01*
X170122380Y-112342857D02*
X170836666Y-112152381D01*
X170836666Y-112152381D02*
X170122380Y-111961905D01*
X170122380Y-111961905D02*
X171122380Y-111723810D01*
X170122380Y-111342857D02*
X170789047Y-111342857D01*
X171122380Y-111342857D02*
X171074761Y-111390476D01*
X171074761Y-111390476D02*
X171027142Y-111342857D01*
X171027142Y-111342857D02*
X171074761Y-111295238D01*
X171074761Y-111295238D02*
X171122380Y-111342857D01*
X171122380Y-111342857D02*
X171027142Y-111342857D01*
X170122380Y-110866667D02*
X170789047Y-110866667D01*
X170598571Y-110866667D02*
X170693809Y-110819048D01*
X170693809Y-110819048D02*
X170741428Y-110771429D01*
X170741428Y-110771429D02*
X170789047Y-110676191D01*
X170789047Y-110676191D02*
X170789047Y-110580953D01*
X170170000Y-109866667D02*
X170122380Y-109961905D01*
X170122380Y-109961905D02*
X170122380Y-110152381D01*
X170122380Y-110152381D02*
X170170000Y-110247619D01*
X170170000Y-110247619D02*
X170265238Y-110295238D01*
X170265238Y-110295238D02*
X170646190Y-110295238D01*
X170646190Y-110295238D02*
X170741428Y-110247619D01*
X170741428Y-110247619D02*
X170789047Y-110152381D01*
X170789047Y-110152381D02*
X170789047Y-109961905D01*
X170789047Y-109961905D02*
X170741428Y-109866667D01*
X170741428Y-109866667D02*
X170646190Y-109819048D01*
X170646190Y-109819048D02*
X170550952Y-109819048D01*
X170550952Y-109819048D02*
X170455714Y-110295238D01*
X170789047Y-108771428D02*
X170789047Y-108390476D01*
X171122380Y-108628571D02*
X170265238Y-108628571D01*
X170265238Y-108628571D02*
X170170000Y-108580952D01*
X170170000Y-108580952D02*
X170122380Y-108485714D01*
X170122380Y-108485714D02*
X170122380Y-108390476D01*
X170122380Y-107914285D02*
X170170000Y-108009523D01*
X170170000Y-108009523D02*
X170217619Y-108057142D01*
X170217619Y-108057142D02*
X170312857Y-108104761D01*
X170312857Y-108104761D02*
X170598571Y-108104761D01*
X170598571Y-108104761D02*
X170693809Y-108057142D01*
X170693809Y-108057142D02*
X170741428Y-108009523D01*
X170741428Y-108009523D02*
X170789047Y-107914285D01*
X170789047Y-107914285D02*
X170789047Y-107771428D01*
X170789047Y-107771428D02*
X170741428Y-107676190D01*
X170741428Y-107676190D02*
X170693809Y-107628571D01*
X170693809Y-107628571D02*
X170598571Y-107580952D01*
X170598571Y-107580952D02*
X170312857Y-107580952D01*
X170312857Y-107580952D02*
X170217619Y-107628571D01*
X170217619Y-107628571D02*
X170170000Y-107676190D01*
X170170000Y-107676190D02*
X170122380Y-107771428D01*
X170122380Y-107771428D02*
X170122380Y-107914285D01*
X170122380Y-105961904D02*
X170646190Y-105961904D01*
X170646190Y-105961904D02*
X170741428Y-106009523D01*
X170741428Y-106009523D02*
X170789047Y-106104761D01*
X170789047Y-106104761D02*
X170789047Y-106295237D01*
X170789047Y-106295237D02*
X170741428Y-106390475D01*
X170170000Y-105961904D02*
X170122380Y-106057142D01*
X170122380Y-106057142D02*
X170122380Y-106295237D01*
X170122380Y-106295237D02*
X170170000Y-106390475D01*
X170170000Y-106390475D02*
X170265238Y-106438094D01*
X170265238Y-106438094D02*
X170360476Y-106438094D01*
X170360476Y-106438094D02*
X170455714Y-106390475D01*
X170455714Y-106390475D02*
X170503333Y-106295237D01*
X170503333Y-106295237D02*
X170503333Y-106057142D01*
X170503333Y-106057142D02*
X170550952Y-105961904D01*
X170122380Y-105057142D02*
X171122380Y-105057142D01*
X170170000Y-105057142D02*
X170122380Y-105152380D01*
X170122380Y-105152380D02*
X170122380Y-105342856D01*
X170122380Y-105342856D02*
X170170000Y-105438094D01*
X170170000Y-105438094D02*
X170217619Y-105485713D01*
X170217619Y-105485713D02*
X170312857Y-105533332D01*
X170312857Y-105533332D02*
X170598571Y-105533332D01*
X170598571Y-105533332D02*
X170693809Y-105485713D01*
X170693809Y-105485713D02*
X170741428Y-105438094D01*
X170741428Y-105438094D02*
X170789047Y-105342856D01*
X170789047Y-105342856D02*
X170789047Y-105152380D01*
X170789047Y-105152380D02*
X170741428Y-105057142D01*
X170789047Y-104580951D02*
X169931904Y-104580951D01*
X169931904Y-104580951D02*
X169836666Y-104628570D01*
X169836666Y-104628570D02*
X169789047Y-104723808D01*
X169789047Y-104723808D02*
X169789047Y-104771427D01*
X171122380Y-104580951D02*
X171074761Y-104628570D01*
X171074761Y-104628570D02*
X171027142Y-104580951D01*
X171027142Y-104580951D02*
X171074761Y-104533332D01*
X171074761Y-104533332D02*
X171122380Y-104580951D01*
X171122380Y-104580951D02*
X171027142Y-104580951D01*
X170122380Y-103676190D02*
X170646190Y-103676190D01*
X170646190Y-103676190D02*
X170741428Y-103723809D01*
X170741428Y-103723809D02*
X170789047Y-103819047D01*
X170789047Y-103819047D02*
X170789047Y-104009523D01*
X170789047Y-104009523D02*
X170741428Y-104104761D01*
X170170000Y-103676190D02*
X170122380Y-103771428D01*
X170122380Y-103771428D02*
X170122380Y-104009523D01*
X170122380Y-104009523D02*
X170170000Y-104104761D01*
X170170000Y-104104761D02*
X170265238Y-104152380D01*
X170265238Y-104152380D02*
X170360476Y-104152380D01*
X170360476Y-104152380D02*
X170455714Y-104104761D01*
X170455714Y-104104761D02*
X170503333Y-104009523D01*
X170503333Y-104009523D02*
X170503333Y-103771428D01*
X170503333Y-103771428D02*
X170550952Y-103676190D01*
X170170000Y-102771428D02*
X170122380Y-102866666D01*
X170122380Y-102866666D02*
X170122380Y-103057142D01*
X170122380Y-103057142D02*
X170170000Y-103152380D01*
X170170000Y-103152380D02*
X170217619Y-103199999D01*
X170217619Y-103199999D02*
X170312857Y-103247618D01*
X170312857Y-103247618D02*
X170598571Y-103247618D01*
X170598571Y-103247618D02*
X170693809Y-103199999D01*
X170693809Y-103199999D02*
X170741428Y-103152380D01*
X170741428Y-103152380D02*
X170789047Y-103057142D01*
X170789047Y-103057142D02*
X170789047Y-102866666D01*
X170789047Y-102866666D02*
X170741428Y-102771428D01*
X170170000Y-101961904D02*
X170122380Y-102057142D01*
X170122380Y-102057142D02*
X170122380Y-102247618D01*
X170122380Y-102247618D02*
X170170000Y-102342856D01*
X170170000Y-102342856D02*
X170265238Y-102390475D01*
X170265238Y-102390475D02*
X170646190Y-102390475D01*
X170646190Y-102390475D02*
X170741428Y-102342856D01*
X170741428Y-102342856D02*
X170789047Y-102247618D01*
X170789047Y-102247618D02*
X170789047Y-102057142D01*
X170789047Y-102057142D02*
X170741428Y-101961904D01*
X170741428Y-101961904D02*
X170646190Y-101914285D01*
X170646190Y-101914285D02*
X170550952Y-101914285D01*
X170550952Y-101914285D02*
X170455714Y-102390475D01*
X170789047Y-101485713D02*
X170122380Y-101485713D01*
X170693809Y-101485713D02*
X170741428Y-101438094D01*
X170741428Y-101438094D02*
X170789047Y-101342856D01*
X170789047Y-101342856D02*
X170789047Y-101199999D01*
X170789047Y-101199999D02*
X170741428Y-101104761D01*
X170741428Y-101104761D02*
X170646190Y-101057142D01*
X170646190Y-101057142D02*
X170122380Y-101057142D01*
X170789047Y-100723808D02*
X170789047Y-100342856D01*
X171122380Y-100580951D02*
X170265238Y-100580951D01*
X170265238Y-100580951D02*
X170170000Y-100533332D01*
X170170000Y-100533332D02*
X170122380Y-100438094D01*
X170122380Y-100438094D02*
X170122380Y-100342856D01*
X170122380Y-99247617D02*
X171122380Y-99247617D01*
X170741428Y-99247617D02*
X170789047Y-99152379D01*
X170789047Y-99152379D02*
X170789047Y-98961903D01*
X170789047Y-98961903D02*
X170741428Y-98866665D01*
X170741428Y-98866665D02*
X170693809Y-98819046D01*
X170693809Y-98819046D02*
X170598571Y-98771427D01*
X170598571Y-98771427D02*
X170312857Y-98771427D01*
X170312857Y-98771427D02*
X170217619Y-98819046D01*
X170217619Y-98819046D02*
X170170000Y-98866665D01*
X170170000Y-98866665D02*
X170122380Y-98961903D01*
X170122380Y-98961903D02*
X170122380Y-99152379D01*
X170122380Y-99152379D02*
X170170000Y-99247617D01*
X170122380Y-98199998D02*
X170170000Y-98295236D01*
X170170000Y-98295236D02*
X170217619Y-98342855D01*
X170217619Y-98342855D02*
X170312857Y-98390474D01*
X170312857Y-98390474D02*
X170598571Y-98390474D01*
X170598571Y-98390474D02*
X170693809Y-98342855D01*
X170693809Y-98342855D02*
X170741428Y-98295236D01*
X170741428Y-98295236D02*
X170789047Y-98199998D01*
X170789047Y-98199998D02*
X170789047Y-98057141D01*
X170789047Y-98057141D02*
X170741428Y-97961903D01*
X170741428Y-97961903D02*
X170693809Y-97914284D01*
X170693809Y-97914284D02*
X170598571Y-97866665D01*
X170598571Y-97866665D02*
X170312857Y-97866665D01*
X170312857Y-97866665D02*
X170217619Y-97914284D01*
X170217619Y-97914284D02*
X170170000Y-97961903D01*
X170170000Y-97961903D02*
X170122380Y-98057141D01*
X170122380Y-98057141D02*
X170122380Y-98199998D01*
X170122380Y-97009522D02*
X170646190Y-97009522D01*
X170646190Y-97009522D02*
X170741428Y-97057141D01*
X170741428Y-97057141D02*
X170789047Y-97152379D01*
X170789047Y-97152379D02*
X170789047Y-97342855D01*
X170789047Y-97342855D02*
X170741428Y-97438093D01*
X170170000Y-97009522D02*
X170122380Y-97104760D01*
X170122380Y-97104760D02*
X170122380Y-97342855D01*
X170122380Y-97342855D02*
X170170000Y-97438093D01*
X170170000Y-97438093D02*
X170265238Y-97485712D01*
X170265238Y-97485712D02*
X170360476Y-97485712D01*
X170360476Y-97485712D02*
X170455714Y-97438093D01*
X170455714Y-97438093D02*
X170503333Y-97342855D01*
X170503333Y-97342855D02*
X170503333Y-97104760D01*
X170503333Y-97104760D02*
X170550952Y-97009522D01*
X170122380Y-96533331D02*
X170789047Y-96533331D01*
X170598571Y-96533331D02*
X170693809Y-96485712D01*
X170693809Y-96485712D02*
X170741428Y-96438093D01*
X170741428Y-96438093D02*
X170789047Y-96342855D01*
X170789047Y-96342855D02*
X170789047Y-96247617D01*
X170122380Y-95485712D02*
X171122380Y-95485712D01*
X170170000Y-95485712D02*
X170122380Y-95580950D01*
X170122380Y-95580950D02*
X170122380Y-95771426D01*
X170122380Y-95771426D02*
X170170000Y-95866664D01*
X170170000Y-95866664D02*
X170217619Y-95914283D01*
X170217619Y-95914283D02*
X170312857Y-95961902D01*
X170312857Y-95961902D02*
X170598571Y-95961902D01*
X170598571Y-95961902D02*
X170693809Y-95914283D01*
X170693809Y-95914283D02*
X170741428Y-95866664D01*
X170741428Y-95866664D02*
X170789047Y-95771426D01*
X170789047Y-95771426D02*
X170789047Y-95580950D01*
X170789047Y-95580950D02*
X170741428Y-95485712D01*
D11*
X165057144Y-56020000D02*
X164771430Y-56115238D01*
X164771430Y-56115238D02*
X164295239Y-56115238D01*
X164295239Y-56115238D02*
X164104763Y-56020000D01*
X164104763Y-56020000D02*
X164009525Y-55924761D01*
X164009525Y-55924761D02*
X163914287Y-55734285D01*
X163914287Y-55734285D02*
X163914287Y-55543809D01*
X163914287Y-55543809D02*
X164009525Y-55353333D01*
X164009525Y-55353333D02*
X164104763Y-55258095D01*
X164104763Y-55258095D02*
X164295239Y-55162857D01*
X164295239Y-55162857D02*
X164676192Y-55067619D01*
X164676192Y-55067619D02*
X164866668Y-54972380D01*
X164866668Y-54972380D02*
X164961906Y-54877142D01*
X164961906Y-54877142D02*
X165057144Y-54686666D01*
X165057144Y-54686666D02*
X165057144Y-54496190D01*
X165057144Y-54496190D02*
X164961906Y-54305714D01*
X164961906Y-54305714D02*
X164866668Y-54210476D01*
X164866668Y-54210476D02*
X164676192Y-54115238D01*
X164676192Y-54115238D02*
X164200001Y-54115238D01*
X164200001Y-54115238D02*
X163914287Y-54210476D01*
X163342858Y-54781904D02*
X162580954Y-54781904D01*
X163057144Y-54115238D02*
X163057144Y-55829523D01*
X163057144Y-55829523D02*
X162961906Y-56020000D01*
X162961906Y-56020000D02*
X162771430Y-56115238D01*
X162771430Y-56115238D02*
X162580954Y-56115238D01*
X161628573Y-56115238D02*
X161819049Y-56020000D01*
X161819049Y-56020000D02*
X161914287Y-55924761D01*
X161914287Y-55924761D02*
X162009525Y-55734285D01*
X162009525Y-55734285D02*
X162009525Y-55162857D01*
X162009525Y-55162857D02*
X161914287Y-54972380D01*
X161914287Y-54972380D02*
X161819049Y-54877142D01*
X161819049Y-54877142D02*
X161628573Y-54781904D01*
X161628573Y-54781904D02*
X161342858Y-54781904D01*
X161342858Y-54781904D02*
X161152382Y-54877142D01*
X161152382Y-54877142D02*
X161057144Y-54972380D01*
X161057144Y-54972380D02*
X160961906Y-55162857D01*
X160961906Y-55162857D02*
X160961906Y-55734285D01*
X160961906Y-55734285D02*
X161057144Y-55924761D01*
X161057144Y-55924761D02*
X161152382Y-56020000D01*
X161152382Y-56020000D02*
X161342858Y-56115238D01*
X161342858Y-56115238D02*
X161628573Y-56115238D01*
X159247620Y-56020000D02*
X159438096Y-56115238D01*
X159438096Y-56115238D02*
X159819049Y-56115238D01*
X159819049Y-56115238D02*
X160009525Y-56020000D01*
X160009525Y-56020000D02*
X160104763Y-55924761D01*
X160104763Y-55924761D02*
X160200001Y-55734285D01*
X160200001Y-55734285D02*
X160200001Y-55162857D01*
X160200001Y-55162857D02*
X160104763Y-54972380D01*
X160104763Y-54972380D02*
X160009525Y-54877142D01*
X160009525Y-54877142D02*
X159819049Y-54781904D01*
X159819049Y-54781904D02*
X159438096Y-54781904D01*
X159438096Y-54781904D02*
X159247620Y-54877142D01*
X158390477Y-56115238D02*
X158390477Y-54115238D01*
X158200001Y-55353333D02*
X157628572Y-56115238D01*
X157628572Y-54781904D02*
X158390477Y-55543809D01*
X155533333Y-54115238D02*
X154390476Y-54115238D01*
X154961905Y-56115238D02*
X154961905Y-54115238D01*
X153723809Y-56115238D02*
X153723809Y-54781904D01*
X153723809Y-54115238D02*
X153819047Y-54210476D01*
X153819047Y-54210476D02*
X153723809Y-54305714D01*
X153723809Y-54305714D02*
X153628571Y-54210476D01*
X153628571Y-54210476D02*
X153723809Y-54115238D01*
X153723809Y-54115238D02*
X153723809Y-54305714D01*
X151914285Y-56020000D02*
X152104761Y-56115238D01*
X152104761Y-56115238D02*
X152485714Y-56115238D01*
X152485714Y-56115238D02*
X152676190Y-56020000D01*
X152676190Y-56020000D02*
X152771428Y-55924761D01*
X152771428Y-55924761D02*
X152866666Y-55734285D01*
X152866666Y-55734285D02*
X152866666Y-55162857D01*
X152866666Y-55162857D02*
X152771428Y-54972380D01*
X152771428Y-54972380D02*
X152676190Y-54877142D01*
X152676190Y-54877142D02*
X152485714Y-54781904D01*
X152485714Y-54781904D02*
X152104761Y-54781904D01*
X152104761Y-54781904D02*
X151914285Y-54877142D01*
X151057142Y-56115238D02*
X151057142Y-54115238D01*
X150866666Y-55353333D02*
X150295237Y-56115238D01*
X150295237Y-54781904D02*
X151057142Y-55543809D01*
X148676189Y-56020000D02*
X148866665Y-56115238D01*
X148866665Y-56115238D02*
X149247618Y-56115238D01*
X149247618Y-56115238D02*
X149438094Y-56020000D01*
X149438094Y-56020000D02*
X149533332Y-55829523D01*
X149533332Y-55829523D02*
X149533332Y-55067619D01*
X149533332Y-55067619D02*
X149438094Y-54877142D01*
X149438094Y-54877142D02*
X149247618Y-54781904D01*
X149247618Y-54781904D02*
X148866665Y-54781904D01*
X148866665Y-54781904D02*
X148676189Y-54877142D01*
X148676189Y-54877142D02*
X148580951Y-55067619D01*
X148580951Y-55067619D02*
X148580951Y-55258095D01*
X148580951Y-55258095D02*
X149533332Y-55448571D01*
X147723808Y-56115238D02*
X147723808Y-54781904D01*
X147723808Y-55162857D02*
X147628570Y-54972380D01*
X147628570Y-54972380D02*
X147533332Y-54877142D01*
X147533332Y-54877142D02*
X147342856Y-54781904D01*
X147342856Y-54781904D02*
X147152379Y-54781904D01*
X144961903Y-56115238D02*
X144961903Y-54115238D01*
X144961903Y-54115238D02*
X144295236Y-55543809D01*
X144295236Y-55543809D02*
X143628570Y-54115238D01*
X143628570Y-54115238D02*
X143628570Y-56115238D01*
X142390475Y-56115238D02*
X142580951Y-56020000D01*
X142580951Y-56020000D02*
X142676189Y-55924761D01*
X142676189Y-55924761D02*
X142771427Y-55734285D01*
X142771427Y-55734285D02*
X142771427Y-55162857D01*
X142771427Y-55162857D02*
X142676189Y-54972380D01*
X142676189Y-54972380D02*
X142580951Y-54877142D01*
X142580951Y-54877142D02*
X142390475Y-54781904D01*
X142390475Y-54781904D02*
X142104760Y-54781904D01*
X142104760Y-54781904D02*
X141914284Y-54877142D01*
X141914284Y-54877142D02*
X141819046Y-54972380D01*
X141819046Y-54972380D02*
X141723808Y-55162857D01*
X141723808Y-55162857D02*
X141723808Y-55734285D01*
X141723808Y-55734285D02*
X141819046Y-55924761D01*
X141819046Y-55924761D02*
X141914284Y-56020000D01*
X141914284Y-56020000D02*
X142104760Y-56115238D01*
X142104760Y-56115238D02*
X142390475Y-56115238D01*
X140009522Y-56115238D02*
X140009522Y-54115238D01*
X140009522Y-56020000D02*
X140199998Y-56115238D01*
X140199998Y-56115238D02*
X140580951Y-56115238D01*
X140580951Y-56115238D02*
X140771427Y-56020000D01*
X140771427Y-56020000D02*
X140866665Y-55924761D01*
X140866665Y-55924761D02*
X140961903Y-55734285D01*
X140961903Y-55734285D02*
X140961903Y-55162857D01*
X140961903Y-55162857D02*
X140866665Y-54972380D01*
X140866665Y-54972380D02*
X140771427Y-54877142D01*
X140771427Y-54877142D02*
X140580951Y-54781904D01*
X140580951Y-54781904D02*
X140199998Y-54781904D01*
X140199998Y-54781904D02*
X140009522Y-54877142D01*
X138199998Y-54781904D02*
X138199998Y-56115238D01*
X139057141Y-54781904D02*
X139057141Y-55829523D01*
X139057141Y-55829523D02*
X138961903Y-56020000D01*
X138961903Y-56020000D02*
X138771427Y-56115238D01*
X138771427Y-56115238D02*
X138485712Y-56115238D01*
X138485712Y-56115238D02*
X138295236Y-56020000D01*
X138295236Y-56020000D02*
X138199998Y-55924761D01*
X136961903Y-56115238D02*
X137152379Y-56020000D01*
X137152379Y-56020000D02*
X137247617Y-55829523D01*
X137247617Y-55829523D02*
X137247617Y-54115238D01*
X135438093Y-56020000D02*
X135628569Y-56115238D01*
X135628569Y-56115238D02*
X136009522Y-56115238D01*
X136009522Y-56115238D02*
X136199998Y-56020000D01*
X136199998Y-56020000D02*
X136295236Y-55829523D01*
X136295236Y-55829523D02*
X136295236Y-55067619D01*
X136295236Y-55067619D02*
X136199998Y-54877142D01*
X136199998Y-54877142D02*
X136009522Y-54781904D01*
X136009522Y-54781904D02*
X135628569Y-54781904D01*
X135628569Y-54781904D02*
X135438093Y-54877142D01*
X135438093Y-54877142D02*
X135342855Y-55067619D01*
X135342855Y-55067619D02*
X135342855Y-55258095D01*
X135342855Y-55258095D02*
X136295236Y-55448571D01*
X152104761Y-58021904D02*
X151628571Y-59355238D01*
X151628571Y-59355238D02*
X151152380Y-58021904D01*
X150390475Y-59164761D02*
X150295237Y-59260000D01*
X150295237Y-59260000D02*
X150390475Y-59355238D01*
X150390475Y-59355238D02*
X150485713Y-59260000D01*
X150485713Y-59260000D02*
X150390475Y-59164761D01*
X150390475Y-59164761D02*
X150390475Y-59355238D01*
X148390475Y-59355238D02*
X149533332Y-59355238D01*
X148961904Y-59355238D02*
X148961904Y-57355238D01*
X148961904Y-57355238D02*
X149152380Y-57640952D01*
X149152380Y-57640952D02*
X149342856Y-57831428D01*
X149342856Y-57831428D02*
X149533332Y-57926666D01*
D12*
X169014285Y-151187857D02*
X169085714Y-151116428D01*
X169085714Y-151116428D02*
X169228571Y-150902142D01*
X169228571Y-150902142D02*
X169300000Y-150759285D01*
X169300000Y-150759285D02*
X169371428Y-150545000D01*
X169371428Y-150545000D02*
X169442857Y-150187857D01*
X169442857Y-150187857D02*
X169442857Y-149902142D01*
X169442857Y-149902142D02*
X169371428Y-149545000D01*
X169371428Y-149545000D02*
X169300000Y-149330714D01*
X169300000Y-149330714D02*
X169228571Y-149187857D01*
X169228571Y-149187857D02*
X169085714Y-148973571D01*
X169085714Y-148973571D02*
X169014285Y-148902142D01*
X167585714Y-150473571D02*
X167657142Y-150545000D01*
X167657142Y-150545000D02*
X167871428Y-150616428D01*
X167871428Y-150616428D02*
X168014285Y-150616428D01*
X168014285Y-150616428D02*
X168228571Y-150545000D01*
X168228571Y-150545000D02*
X168371428Y-150402142D01*
X168371428Y-150402142D02*
X168442857Y-150259285D01*
X168442857Y-150259285D02*
X168514285Y-149973571D01*
X168514285Y-149973571D02*
X168514285Y-149759285D01*
X168514285Y-149759285D02*
X168442857Y-149473571D01*
X168442857Y-149473571D02*
X168371428Y-149330714D01*
X168371428Y-149330714D02*
X168228571Y-149187857D01*
X168228571Y-149187857D02*
X168014285Y-149116428D01*
X168014285Y-149116428D02*
X167871428Y-149116428D01*
X167871428Y-149116428D02*
X167657142Y-149187857D01*
X167657142Y-149187857D02*
X167585714Y-149259285D01*
X167085714Y-151187857D02*
X167014285Y-151116428D01*
X167014285Y-151116428D02*
X166871428Y-150902142D01*
X166871428Y-150902142D02*
X166800000Y-150759285D01*
X166800000Y-150759285D02*
X166728571Y-150545000D01*
X166728571Y-150545000D02*
X166657142Y-150187857D01*
X166657142Y-150187857D02*
X166657142Y-149902142D01*
X166657142Y-149902142D02*
X166728571Y-149545000D01*
X166728571Y-149545000D02*
X166800000Y-149330714D01*
X166800000Y-149330714D02*
X166871428Y-149187857D01*
X166871428Y-149187857D02*
X167014285Y-148973571D01*
X167014285Y-148973571D02*
X167085714Y-148902142D01*
X164871428Y-149259285D02*
X164800000Y-149187857D01*
X164800000Y-149187857D02*
X164657143Y-149116428D01*
X164657143Y-149116428D02*
X164300000Y-149116428D01*
X164300000Y-149116428D02*
X164157143Y-149187857D01*
X164157143Y-149187857D02*
X164085714Y-149259285D01*
X164085714Y-149259285D02*
X164014285Y-149402142D01*
X164014285Y-149402142D02*
X164014285Y-149545000D01*
X164014285Y-149545000D02*
X164085714Y-149759285D01*
X164085714Y-149759285D02*
X164942857Y-150616428D01*
X164942857Y-150616428D02*
X164014285Y-150616428D01*
X163085714Y-149116428D02*
X162942857Y-149116428D01*
X162942857Y-149116428D02*
X162800000Y-149187857D01*
X162800000Y-149187857D02*
X162728572Y-149259285D01*
X162728572Y-149259285D02*
X162657143Y-149402142D01*
X162657143Y-149402142D02*
X162585714Y-149687857D01*
X162585714Y-149687857D02*
X162585714Y-150045000D01*
X162585714Y-150045000D02*
X162657143Y-150330714D01*
X162657143Y-150330714D02*
X162728572Y-150473571D01*
X162728572Y-150473571D02*
X162800000Y-150545000D01*
X162800000Y-150545000D02*
X162942857Y-150616428D01*
X162942857Y-150616428D02*
X163085714Y-150616428D01*
X163085714Y-150616428D02*
X163228572Y-150545000D01*
X163228572Y-150545000D02*
X163300000Y-150473571D01*
X163300000Y-150473571D02*
X163371429Y-150330714D01*
X163371429Y-150330714D02*
X163442857Y-150045000D01*
X163442857Y-150045000D02*
X163442857Y-149687857D01*
X163442857Y-149687857D02*
X163371429Y-149402142D01*
X163371429Y-149402142D02*
X163300000Y-149259285D01*
X163300000Y-149259285D02*
X163228572Y-149187857D01*
X163228572Y-149187857D02*
X163085714Y-149116428D01*
X162014286Y-149259285D02*
X161942858Y-149187857D01*
X161942858Y-149187857D02*
X161800001Y-149116428D01*
X161800001Y-149116428D02*
X161442858Y-149116428D01*
X161442858Y-149116428D02*
X161300001Y-149187857D01*
X161300001Y-149187857D02*
X161228572Y-149259285D01*
X161228572Y-149259285D02*
X161157143Y-149402142D01*
X161157143Y-149402142D02*
X161157143Y-149545000D01*
X161157143Y-149545000D02*
X161228572Y-149759285D01*
X161228572Y-149759285D02*
X162085715Y-150616428D01*
X162085715Y-150616428D02*
X161157143Y-150616428D01*
X160657144Y-149116428D02*
X159728572Y-149116428D01*
X159728572Y-149116428D02*
X160228572Y-149687857D01*
X160228572Y-149687857D02*
X160014287Y-149687857D01*
X160014287Y-149687857D02*
X159871430Y-149759285D01*
X159871430Y-149759285D02*
X159800001Y-149830714D01*
X159800001Y-149830714D02*
X159728572Y-149973571D01*
X159728572Y-149973571D02*
X159728572Y-150330714D01*
X159728572Y-150330714D02*
X159800001Y-150473571D01*
X159800001Y-150473571D02*
X159871430Y-150545000D01*
X159871430Y-150545000D02*
X160014287Y-150616428D01*
X160014287Y-150616428D02*
X160442858Y-150616428D01*
X160442858Y-150616428D02*
X160585715Y-150545000D01*
X160585715Y-150545000D02*
X160657144Y-150473571D01*
X157442859Y-149830714D02*
X157228573Y-149902142D01*
X157228573Y-149902142D02*
X157157144Y-149973571D01*
X157157144Y-149973571D02*
X157085716Y-150116428D01*
X157085716Y-150116428D02*
X157085716Y-150330714D01*
X157085716Y-150330714D02*
X157157144Y-150473571D01*
X157157144Y-150473571D02*
X157228573Y-150545000D01*
X157228573Y-150545000D02*
X157371430Y-150616428D01*
X157371430Y-150616428D02*
X157942859Y-150616428D01*
X157942859Y-150616428D02*
X157942859Y-149116428D01*
X157942859Y-149116428D02*
X157442859Y-149116428D01*
X157442859Y-149116428D02*
X157300002Y-149187857D01*
X157300002Y-149187857D02*
X157228573Y-149259285D01*
X157228573Y-149259285D02*
X157157144Y-149402142D01*
X157157144Y-149402142D02*
X157157144Y-149545000D01*
X157157144Y-149545000D02*
X157228573Y-149687857D01*
X157228573Y-149687857D02*
X157300002Y-149759285D01*
X157300002Y-149759285D02*
X157442859Y-149830714D01*
X157442859Y-149830714D02*
X157942859Y-149830714D01*
X156442859Y-150616428D02*
X156442859Y-149616428D01*
X156442859Y-149902142D02*
X156371430Y-149759285D01*
X156371430Y-149759285D02*
X156300002Y-149687857D01*
X156300002Y-149687857D02*
X156157144Y-149616428D01*
X156157144Y-149616428D02*
X156014287Y-149616428D01*
X155300002Y-150616428D02*
X155442859Y-150545000D01*
X155442859Y-150545000D02*
X155514288Y-150473571D01*
X155514288Y-150473571D02*
X155585716Y-150330714D01*
X155585716Y-150330714D02*
X155585716Y-149902142D01*
X155585716Y-149902142D02*
X155514288Y-149759285D01*
X155514288Y-149759285D02*
X155442859Y-149687857D01*
X155442859Y-149687857D02*
X155300002Y-149616428D01*
X155300002Y-149616428D02*
X155085716Y-149616428D01*
X155085716Y-149616428D02*
X154942859Y-149687857D01*
X154942859Y-149687857D02*
X154871431Y-149759285D01*
X154871431Y-149759285D02*
X154800002Y-149902142D01*
X154800002Y-149902142D02*
X154800002Y-150330714D01*
X154800002Y-150330714D02*
X154871431Y-150473571D01*
X154871431Y-150473571D02*
X154942859Y-150545000D01*
X154942859Y-150545000D02*
X155085716Y-150616428D01*
X155085716Y-150616428D02*
X155300002Y-150616428D01*
X153514288Y-150616428D02*
X153514288Y-149830714D01*
X153514288Y-149830714D02*
X153585716Y-149687857D01*
X153585716Y-149687857D02*
X153728573Y-149616428D01*
X153728573Y-149616428D02*
X154014288Y-149616428D01*
X154014288Y-149616428D02*
X154157145Y-149687857D01*
X153514288Y-150545000D02*
X153657145Y-150616428D01*
X153657145Y-150616428D02*
X154014288Y-150616428D01*
X154014288Y-150616428D02*
X154157145Y-150545000D01*
X154157145Y-150545000D02*
X154228573Y-150402142D01*
X154228573Y-150402142D02*
X154228573Y-150259285D01*
X154228573Y-150259285D02*
X154157145Y-150116428D01*
X154157145Y-150116428D02*
X154014288Y-150045000D01*
X154014288Y-150045000D02*
X153657145Y-150045000D01*
X153657145Y-150045000D02*
X153514288Y-149973571D01*
X152157145Y-150616428D02*
X152157145Y-149116428D01*
X152157145Y-150545000D02*
X152300002Y-150616428D01*
X152300002Y-150616428D02*
X152585716Y-150616428D01*
X152585716Y-150616428D02*
X152728573Y-150545000D01*
X152728573Y-150545000D02*
X152800002Y-150473571D01*
X152800002Y-150473571D02*
X152871430Y-150330714D01*
X152871430Y-150330714D02*
X152871430Y-149902142D01*
X152871430Y-149902142D02*
X152800002Y-149759285D01*
X152800002Y-149759285D02*
X152728573Y-149687857D01*
X152728573Y-149687857D02*
X152585716Y-149616428D01*
X152585716Y-149616428D02*
X152300002Y-149616428D01*
X152300002Y-149616428D02*
X152157145Y-149687857D01*
X151442859Y-150616428D02*
X151442859Y-149116428D01*
X151442859Y-149687857D02*
X151300002Y-149616428D01*
X151300002Y-149616428D02*
X151014287Y-149616428D01*
X151014287Y-149616428D02*
X150871430Y-149687857D01*
X150871430Y-149687857D02*
X150800002Y-149759285D01*
X150800002Y-149759285D02*
X150728573Y-149902142D01*
X150728573Y-149902142D02*
X150728573Y-150330714D01*
X150728573Y-150330714D02*
X150800002Y-150473571D01*
X150800002Y-150473571D02*
X150871430Y-150545000D01*
X150871430Y-150545000D02*
X151014287Y-150616428D01*
X151014287Y-150616428D02*
X151300002Y-150616428D01*
X151300002Y-150616428D02*
X151442859Y-150545000D01*
X149514287Y-150545000D02*
X149657144Y-150616428D01*
X149657144Y-150616428D02*
X149942859Y-150616428D01*
X149942859Y-150616428D02*
X150085716Y-150545000D01*
X150085716Y-150545000D02*
X150157144Y-150402142D01*
X150157144Y-150402142D02*
X150157144Y-149830714D01*
X150157144Y-149830714D02*
X150085716Y-149687857D01*
X150085716Y-149687857D02*
X149942859Y-149616428D01*
X149942859Y-149616428D02*
X149657144Y-149616428D01*
X149657144Y-149616428D02*
X149514287Y-149687857D01*
X149514287Y-149687857D02*
X149442859Y-149830714D01*
X149442859Y-149830714D02*
X149442859Y-149973571D01*
X149442859Y-149973571D02*
X150157144Y-150116428D01*
X148800002Y-150616428D02*
X148800002Y-149616428D01*
X148800002Y-149902142D02*
X148728573Y-149759285D01*
X148728573Y-149759285D02*
X148657145Y-149687857D01*
X148657145Y-149687857D02*
X148514287Y-149616428D01*
X148514287Y-149616428D02*
X148371430Y-149616428D01*
X147871431Y-150616428D02*
X147871431Y-149616428D01*
X147871431Y-149902142D02*
X147800002Y-149759285D01*
X147800002Y-149759285D02*
X147728574Y-149687857D01*
X147728574Y-149687857D02*
X147585716Y-149616428D01*
X147585716Y-149616428D02*
X147442859Y-149616428D01*
X147085717Y-149616428D02*
X146728574Y-150616428D01*
X146371431Y-149616428D02*
X146728574Y-150616428D01*
X146728574Y-150616428D02*
X146871431Y-150973571D01*
X146871431Y-150973571D02*
X146942860Y-151045000D01*
X146942860Y-151045000D02*
X147085717Y-151116428D01*
X144871431Y-149116428D02*
X144014289Y-149116428D01*
X144442860Y-150616428D02*
X144442860Y-149116428D01*
X143300003Y-150616428D02*
X143442860Y-150545000D01*
X143442860Y-150545000D02*
X143514289Y-150473571D01*
X143514289Y-150473571D02*
X143585717Y-150330714D01*
X143585717Y-150330714D02*
X143585717Y-149902142D01*
X143585717Y-149902142D02*
X143514289Y-149759285D01*
X143514289Y-149759285D02*
X143442860Y-149687857D01*
X143442860Y-149687857D02*
X143300003Y-149616428D01*
X143300003Y-149616428D02*
X143085717Y-149616428D01*
X143085717Y-149616428D02*
X142942860Y-149687857D01*
X142942860Y-149687857D02*
X142871432Y-149759285D01*
X142871432Y-149759285D02*
X142800003Y-149902142D01*
X142800003Y-149902142D02*
X142800003Y-150330714D01*
X142800003Y-150330714D02*
X142871432Y-150473571D01*
X142871432Y-150473571D02*
X142942860Y-150545000D01*
X142942860Y-150545000D02*
X143085717Y-150616428D01*
X143085717Y-150616428D02*
X143300003Y-150616428D01*
X141514289Y-149616428D02*
X141514289Y-150616428D01*
X142157146Y-149616428D02*
X142157146Y-150402142D01*
X142157146Y-150402142D02*
X142085717Y-150545000D01*
X142085717Y-150545000D02*
X141942860Y-150616428D01*
X141942860Y-150616428D02*
X141728574Y-150616428D01*
X141728574Y-150616428D02*
X141585717Y-150545000D01*
X141585717Y-150545000D02*
X141514289Y-150473571D01*
X140157146Y-150545000D02*
X140300003Y-150616428D01*
X140300003Y-150616428D02*
X140585717Y-150616428D01*
X140585717Y-150616428D02*
X140728574Y-150545000D01*
X140728574Y-150545000D02*
X140800003Y-150473571D01*
X140800003Y-150473571D02*
X140871431Y-150330714D01*
X140871431Y-150330714D02*
X140871431Y-149902142D01*
X140871431Y-149902142D02*
X140800003Y-149759285D01*
X140800003Y-149759285D02*
X140728574Y-149687857D01*
X140728574Y-149687857D02*
X140585717Y-149616428D01*
X140585717Y-149616428D02*
X140300003Y-149616428D01*
X140300003Y-149616428D02*
X140157146Y-149687857D01*
X139514289Y-150616428D02*
X139514289Y-149116428D01*
X138871432Y-150616428D02*
X138871432Y-149830714D01*
X138871432Y-149830714D02*
X138942860Y-149687857D01*
X138942860Y-149687857D02*
X139085717Y-149616428D01*
X139085717Y-149616428D02*
X139300003Y-149616428D01*
X139300003Y-149616428D02*
X139442860Y-149687857D01*
X139442860Y-149687857D02*
X139514289Y-149759285D01*
X137585717Y-150545000D02*
X137728574Y-150616428D01*
X137728574Y-150616428D02*
X138014289Y-150616428D01*
X138014289Y-150616428D02*
X138157146Y-150545000D01*
X138157146Y-150545000D02*
X138228574Y-150402142D01*
X138228574Y-150402142D02*
X138228574Y-149830714D01*
X138228574Y-149830714D02*
X138157146Y-149687857D01*
X138157146Y-149687857D02*
X138014289Y-149616428D01*
X138014289Y-149616428D02*
X137728574Y-149616428D01*
X137728574Y-149616428D02*
X137585717Y-149687857D01*
X137585717Y-149687857D02*
X137514289Y-149830714D01*
X137514289Y-149830714D02*
X137514289Y-149973571D01*
X137514289Y-149973571D02*
X138228574Y-150116428D01*
X136228575Y-150616428D02*
X136228575Y-149830714D01*
X136228575Y-149830714D02*
X136300003Y-149687857D01*
X136300003Y-149687857D02*
X136442860Y-149616428D01*
X136442860Y-149616428D02*
X136728575Y-149616428D01*
X136728575Y-149616428D02*
X136871432Y-149687857D01*
X136228575Y-150545000D02*
X136371432Y-150616428D01*
X136371432Y-150616428D02*
X136728575Y-150616428D01*
X136728575Y-150616428D02*
X136871432Y-150545000D01*
X136871432Y-150545000D02*
X136942860Y-150402142D01*
X136942860Y-150402142D02*
X136942860Y-150259285D01*
X136942860Y-150259285D02*
X136871432Y-150116428D01*
X136871432Y-150116428D02*
X136728575Y-150045000D01*
X136728575Y-150045000D02*
X136371432Y-150045000D01*
X136371432Y-150045000D02*
X136228575Y-149973571D01*
X134871432Y-150616428D02*
X134871432Y-149116428D01*
X134871432Y-150545000D02*
X135014289Y-150616428D01*
X135014289Y-150616428D02*
X135300003Y-150616428D01*
X135300003Y-150616428D02*
X135442860Y-150545000D01*
X135442860Y-150545000D02*
X135514289Y-150473571D01*
X135514289Y-150473571D02*
X135585717Y-150330714D01*
X135585717Y-150330714D02*
X135585717Y-149902142D01*
X135585717Y-149902142D02*
X135514289Y-149759285D01*
X135514289Y-149759285D02*
X135442860Y-149687857D01*
X135442860Y-149687857D02*
X135300003Y-149616428D01*
X135300003Y-149616428D02*
X135014289Y-149616428D01*
X135014289Y-149616428D02*
X134871432Y-149687857D01*
X134085717Y-150545000D02*
X134085717Y-150616428D01*
X134085717Y-150616428D02*
X134157146Y-150759285D01*
X134157146Y-150759285D02*
X134228574Y-150830714D01*
X132300003Y-150616428D02*
X132300003Y-149116428D01*
X131585717Y-149616428D02*
X131585717Y-150616428D01*
X131585717Y-149759285D02*
X131514288Y-149687857D01*
X131514288Y-149687857D02*
X131371431Y-149616428D01*
X131371431Y-149616428D02*
X131157145Y-149616428D01*
X131157145Y-149616428D02*
X131014288Y-149687857D01*
X131014288Y-149687857D02*
X130942860Y-149830714D01*
X130942860Y-149830714D02*
X130942860Y-150616428D01*
X129585717Y-150545000D02*
X129728574Y-150616428D01*
X129728574Y-150616428D02*
X130014288Y-150616428D01*
X130014288Y-150616428D02*
X130157145Y-150545000D01*
X130157145Y-150545000D02*
X130228574Y-150473571D01*
X130228574Y-150473571D02*
X130300002Y-150330714D01*
X130300002Y-150330714D02*
X130300002Y-149902142D01*
X130300002Y-149902142D02*
X130228574Y-149759285D01*
X130228574Y-149759285D02*
X130157145Y-149687857D01*
X130157145Y-149687857D02*
X130014288Y-149616428D01*
X130014288Y-149616428D02*
X129728574Y-149616428D01*
X129728574Y-149616428D02*
X129585717Y-149687857D01*
X128942860Y-150473571D02*
X128871431Y-150545000D01*
X128871431Y-150545000D02*
X128942860Y-150616428D01*
X128942860Y-150616428D02*
X129014288Y-150545000D01*
X129014288Y-150545000D02*
X128942860Y-150473571D01*
X128942860Y-150473571D02*
X128942860Y-150616428D01*
D13*
X163971428Y-49832857D02*
X163971428Y-50404285D01*
X162828571Y-49832857D02*
X162828571Y-50404285D01*
X161828571Y-49832857D02*
X161114285Y-52832857D01*
X161114285Y-52832857D02*
X160542857Y-50690000D01*
X160542857Y-50690000D02*
X159971428Y-52832857D01*
X159971428Y-52832857D02*
X159257143Y-49832857D01*
X158114286Y-52832857D02*
X158114286Y-49832857D01*
X156828572Y-52832857D02*
X156828572Y-51261428D01*
X156828572Y-51261428D02*
X156971429Y-50975714D01*
X156971429Y-50975714D02*
X157257143Y-50832857D01*
X157257143Y-50832857D02*
X157685714Y-50832857D01*
X157685714Y-50832857D02*
X157971429Y-50975714D01*
X157971429Y-50975714D02*
X158114286Y-51118571D01*
X154257143Y-52690000D02*
X154542857Y-52832857D01*
X154542857Y-52832857D02*
X155114286Y-52832857D01*
X155114286Y-52832857D02*
X155400000Y-52690000D01*
X155400000Y-52690000D02*
X155542857Y-52404285D01*
X155542857Y-52404285D02*
X155542857Y-51261428D01*
X155542857Y-51261428D02*
X155400000Y-50975714D01*
X155400000Y-50975714D02*
X155114286Y-50832857D01*
X155114286Y-50832857D02*
X154542857Y-50832857D01*
X154542857Y-50832857D02*
X154257143Y-50975714D01*
X154257143Y-50975714D02*
X154114286Y-51261428D01*
X154114286Y-51261428D02*
X154114286Y-51547142D01*
X154114286Y-51547142D02*
X155542857Y-51832857D01*
X152828571Y-52832857D02*
X152828571Y-50832857D01*
X152828571Y-51404285D02*
X152685714Y-51118571D01*
X152685714Y-51118571D02*
X152542857Y-50975714D01*
X152542857Y-50975714D02*
X152257142Y-50832857D01*
X152257142Y-50832857D02*
X151971428Y-50832857D01*
X149828571Y-52690000D02*
X150114285Y-52832857D01*
X150114285Y-52832857D02*
X150685714Y-52832857D01*
X150685714Y-52832857D02*
X150971428Y-52690000D01*
X150971428Y-52690000D02*
X151114285Y-52404285D01*
X151114285Y-52404285D02*
X151114285Y-51261428D01*
X151114285Y-51261428D02*
X150971428Y-50975714D01*
X150971428Y-50975714D02*
X150685714Y-50832857D01*
X150685714Y-50832857D02*
X150114285Y-50832857D01*
X150114285Y-50832857D02*
X149828571Y-50975714D01*
X149828571Y-50975714D02*
X149685714Y-51261428D01*
X149685714Y-51261428D02*
X149685714Y-51547142D01*
X149685714Y-51547142D02*
X151114285Y-51832857D01*
X146114285Y-49832857D02*
X146114285Y-52261428D01*
X146114285Y-52261428D02*
X145971428Y-52547142D01*
X145971428Y-52547142D02*
X145828571Y-52690000D01*
X145828571Y-52690000D02*
X145542856Y-52832857D01*
X145542856Y-52832857D02*
X144971428Y-52832857D01*
X144971428Y-52832857D02*
X144685713Y-52690000D01*
X144685713Y-52690000D02*
X144542856Y-52547142D01*
X144542856Y-52547142D02*
X144399999Y-52261428D01*
X144399999Y-52261428D02*
X144399999Y-49832857D01*
X142971428Y-50832857D02*
X142971428Y-53832857D01*
X142971428Y-50975714D02*
X142685714Y-50832857D01*
X142685714Y-50832857D02*
X142114285Y-50832857D01*
X142114285Y-50832857D02*
X141828571Y-50975714D01*
X141828571Y-50975714D02*
X141685714Y-51118571D01*
X141685714Y-51118571D02*
X141542856Y-51404285D01*
X141542856Y-51404285D02*
X141542856Y-52261428D01*
X141542856Y-52261428D02*
X141685714Y-52547142D01*
X141685714Y-52547142D02*
X141828571Y-52690000D01*
X141828571Y-52690000D02*
X142114285Y-52832857D01*
X142114285Y-52832857D02*
X142685714Y-52832857D01*
X142685714Y-52832857D02*
X142971428Y-52690000D01*
X140399999Y-52690000D02*
X140114285Y-52832857D01*
X140114285Y-52832857D02*
X139542856Y-52832857D01*
X139542856Y-52832857D02*
X139257142Y-52690000D01*
X139257142Y-52690000D02*
X139114285Y-52404285D01*
X139114285Y-52404285D02*
X139114285Y-52261428D01*
X139114285Y-52261428D02*
X139257142Y-51975714D01*
X139257142Y-51975714D02*
X139542856Y-51832857D01*
X139542856Y-51832857D02*
X139971428Y-51832857D01*
X139971428Y-51832857D02*
X140257142Y-51690000D01*
X140257142Y-51690000D02*
X140399999Y-51404285D01*
X140399999Y-51404285D02*
X140399999Y-51261428D01*
X140399999Y-51261428D02*
X140257142Y-50975714D01*
X140257142Y-50975714D02*
X139971428Y-50832857D01*
X139971428Y-50832857D02*
X139542856Y-50832857D01*
X139542856Y-50832857D02*
X139257142Y-50975714D01*
X137971428Y-49832857D02*
X137971428Y-50404285D01*
X136828571Y-49832857D02*
X136828571Y-50404285D01*
D10*
%TO.C,J2*%
X170863333Y-117132619D02*
X170863333Y-117846904D01*
X170863333Y-117846904D02*
X170910952Y-117989761D01*
X170910952Y-117989761D02*
X171006190Y-118085000D01*
X171006190Y-118085000D02*
X171149047Y-118132619D01*
X171149047Y-118132619D02*
X171244285Y-118132619D01*
X170434761Y-117227857D02*
X170387142Y-117180238D01*
X170387142Y-117180238D02*
X170291904Y-117132619D01*
X170291904Y-117132619D02*
X170053809Y-117132619D01*
X170053809Y-117132619D02*
X169958571Y-117180238D01*
X169958571Y-117180238D02*
X169910952Y-117227857D01*
X169910952Y-117227857D02*
X169863333Y-117323095D01*
X169863333Y-117323095D02*
X169863333Y-117418333D01*
X169863333Y-117418333D02*
X169910952Y-117561190D01*
X169910952Y-117561190D02*
X170482380Y-118132619D01*
X170482380Y-118132619D02*
X169863333Y-118132619D01*
%TO.C,U1*%
X129571904Y-79792619D02*
X129571904Y-80602142D01*
X129571904Y-80602142D02*
X129524285Y-80697380D01*
X129524285Y-80697380D02*
X129476666Y-80745000D01*
X129476666Y-80745000D02*
X129381428Y-80792619D01*
X129381428Y-80792619D02*
X129190952Y-80792619D01*
X129190952Y-80792619D02*
X129095714Y-80745000D01*
X129095714Y-80745000D02*
X129048095Y-80697380D01*
X129048095Y-80697380D02*
X129000476Y-80602142D01*
X129000476Y-80602142D02*
X129000476Y-79792619D01*
X128000476Y-80792619D02*
X128571904Y-80792619D01*
X128286190Y-80792619D02*
X128286190Y-79792619D01*
X128286190Y-79792619D02*
X128381428Y-79935476D01*
X128381428Y-79935476D02*
X128476666Y-80030714D01*
X128476666Y-80030714D02*
X128571904Y-80078333D01*
%TO.C,U2*%
X171571904Y-79792619D02*
X171571904Y-80602142D01*
X171571904Y-80602142D02*
X171524285Y-80697380D01*
X171524285Y-80697380D02*
X171476666Y-80745000D01*
X171476666Y-80745000D02*
X171381428Y-80792619D01*
X171381428Y-80792619D02*
X171190952Y-80792619D01*
X171190952Y-80792619D02*
X171095714Y-80745000D01*
X171095714Y-80745000D02*
X171048095Y-80697380D01*
X171048095Y-80697380D02*
X171000476Y-80602142D01*
X171000476Y-80602142D02*
X171000476Y-79792619D01*
X170571904Y-79887857D02*
X170524285Y-79840238D01*
X170524285Y-79840238D02*
X170429047Y-79792619D01*
X170429047Y-79792619D02*
X170190952Y-79792619D01*
X170190952Y-79792619D02*
X170095714Y-79840238D01*
X170095714Y-79840238D02*
X170048095Y-79887857D01*
X170048095Y-79887857D02*
X170000476Y-79983095D01*
X170000476Y-79983095D02*
X170000476Y-80078333D01*
X170000476Y-80078333D02*
X170048095Y-80221190D01*
X170048095Y-80221190D02*
X170619523Y-80792619D01*
X170619523Y-80792619D02*
X170000476Y-80792619D01*
D14*
%TO.C,J2*%
X173130000Y-121270000D02*
X170530000Y-121270000D01*
X173130000Y-121270000D02*
X173130000Y-146730000D01*
X173130000Y-146730000D02*
X167930000Y-146730000D01*
X170530000Y-121270000D02*
X170530000Y-118670000D01*
X173130000Y-120000000D02*
X173130000Y-118670000D01*
X173130000Y-118670000D02*
X171800000Y-118670000D01*
X167930000Y-118670000D02*
X167930000Y-146730000D01*
X170530000Y-118670000D02*
X167930000Y-118670000D01*
%TO.C,U1*%
X129810000Y-79330000D02*
G75*
G03*
X127810000Y-79330000I-1000000J0D01*
G01*
X131060000Y-79330000D02*
X129810000Y-79330000D01*
X131060000Y-58890000D02*
X131060000Y-79330000D01*
X127810000Y-79330000D02*
X126560000Y-79330000D01*
X126560000Y-79330000D02*
X126560000Y-58890000D01*
X126560000Y-58890000D02*
X131060000Y-58890000D01*
%TO.C,U2*%
X171810000Y-79330000D02*
G75*
G03*
X169810000Y-79330000I-1000000J0D01*
G01*
X173060000Y-79330000D02*
X171810000Y-79330000D01*
X173060000Y-58890000D02*
X173060000Y-79330000D01*
X169810000Y-79330000D02*
X168560000Y-79330000D01*
X168560000Y-79330000D02*
X168560000Y-58890000D01*
X168560000Y-58890000D02*
X173060000Y-58890000D01*
%TD*%
M02*
